<?xml version="1.0" encoding="UTF-8"?>
<!DOCTYPE svg PUBLIC "-//W3C//DTD SVG 1.1//EN" "http://www.w3.org/Graphics/SVG/1.1/DTD/svg11.dtd">
<svg xmlns="http://www.w3.org/2000/svg" version="1.1" width="1484px" height="385px" style="shape-rendering:geometricPrecision; text-rendering:geometricPrecision; image-rendering:optimizeQuality; fill-rule:evenodd; clip-rule:evenodd" xmlns:xlink="http://www.w3.org/1999/xlink">
<g><path style="opacity:0.956" fill="#c9253c" d="M 401.5,-0.5 C 407.167,-0.5 412.833,-0.5 418.5,-0.5C 414.782,0.528019 411.448,2.36135 408.5,5C 408.833,5.33333 409.167,5.66667 409.5,6C 408.513,8.31124 407.513,10.6446 406.5,13C 407.088,18.6277 406.088,24.1277 403.5,29.5C 403.68,30.5539 404.013,31.5539 404.5,32.5C 403.905,37.1034 402.572,41.4367 400.5,45.5C 400.987,46.4461 401.32,47.4461 401.5,48.5C 397.549,70.3762 393.549,92.2095 389.5,114C 392.817,114.498 396.15,114.665 399.5,114.5C 399.714,116.144 399.38,117.644 398.5,119C 395.183,119.498 391.85,119.665 388.5,119.5C 388.56,122.021 387.894,124.354 386.5,126.5C 386.68,127.554 387.013,128.554 387.5,129.5C 386.744,133.961 385.411,138.128 383.5,142C 384.081,142.893 384.415,143.893 384.5,145C 375.246,194.384 366.579,243.718 358.5,293C 360.713,294.616 363.047,295.783 365.5,296.5C 359.491,296.666 353.491,296.499 347.5,296C 345.934,294.316 344.934,292.316 344.5,290C 347.771,272.875 350.771,255.708 353.5,238.5C 355.5,238.5 357.5,238.5 359.5,238.5C 359.162,235.843 359.829,233.51 361.5,231.5C 359.604,230.534 357.604,230.201 355.5,230.5C 368.355,154.701 381.855,79.0339 396,3.5C 397.812,2.02294 399.645,0.689603 401.5,-0.5 Z"/></g>
<g><path style="opacity:0.929" fill="#a1a7a5" d="M 432.5,-0.5 C 442.167,-0.5 451.833,-0.5 461.5,-0.5C 461.833,0.166667 462.167,0.833333 462.5,1.5C 452.37,0.880224 442.37,0.213557 432.5,-0.5 Z"/></g>
<g><path style="opacity:0.956" fill="#2df5f1" d="M 461.5,-0.5 C 466.167,-0.5 470.833,-0.5 475.5,-0.5C 476.688,0.363622 477.855,1.36362 479,2.5C 479.667,5.83333 479.667,9.16667 479,12.5C 472.84,46.4586 467.007,80.4586 461.5,114.5C 464.5,114.5 467.5,114.5 470.5,114.5C 470.5,116.167 470.5,117.833 470.5,119.5C 466.833,119.5 463.167,119.5 459.5,119.5C 457.167,134.833 454.833,150.167 452.5,165.5C 447.637,165.819 442.97,165.486 438.5,164.5C 438.179,163.183 437.846,161.849 437.5,160.5C 439.749,150.319 442.082,140.152 444.5,130C 443.765,126.467 443.765,123.134 444.5,120C 448.211,119.825 451.878,119.325 455.5,118.5C 456.246,117.264 456.579,115.93 456.5,114.5C 452.818,114.665 449.152,114.499 445.5,114C 447.658,113.041 447.991,111.541 446.5,109.5C 447.872,105.984 448.872,102.651 449.5,99.5C 448.313,97.7896 448.646,96.2896 450.5,95C 449.663,90.6704 450.33,86.5037 452.5,82.5C 451.313,80.7896 451.646,79.2896 453.5,78C 452.663,73.6704 453.33,69.5037 455.5,65.5C 454.313,63.7896 454.646,62.2896 456.5,61C 456.167,60 455.833,59 455.5,58C 456.684,53.923 458.017,49.923 459.5,46C 459.634,44.455 459.3,42.7883 458.5,41C 461.392,35.2604 462.392,29.5937 461.5,24C 463.295,18.6463 464.628,13.4796 465.5,8.5C 464.802,7.1374 464.802,5.97073 465.5,5C 464.29,3.9609 463.29,2.79423 462.5,1.5C 462.167,0.833333 461.833,0.166667 461.5,-0.5 Z"/></g>
<g><path style="opacity:0.942" fill="#ca293c" d="M 1404.5,-0.5 C 1409.5,-0.5 1414.5,-0.5 1419.5,-0.5C 1417.08,1.14354 1414.91,3.14354 1413,5.5C 1412.26,9.30243 1411.09,12.9691 1409.5,16.5C 1409.68,17.5539 1410.01,18.5539 1410.5,19.5C 1409.74,23.9612 1408.41,28.1279 1406.5,32C 1407.41,36.8099 1406.74,41.4766 1404.5,46C 1405.04,49.5786 1406.37,52.7453 1408.5,55.5C 1403.82,55.6658 1399.15,55.4992 1394.5,55C 1392.05,53.1367 1391.05,50.6367 1391.5,47.5C 1393.55,33.0888 1396.05,18.7554 1399,4.5C 1400.73,2.59809 1402.56,0.93142 1404.5,-0.5 Z"/></g>
<g><path style="opacity:0.941" fill="#3df3ed" d="M 1452.5,-0.5 C 1461.5,-0.5 1470.5,-0.5 1479.5,-0.5C 1481.17,0.5 1482.5,1.83333 1483.5,3.5C 1483.5,5.5 1483.5,7.5 1483.5,9.5C 1480.8,22.3241 1478.3,35.3241 1476,48.5C 1475.21,51.5827 1473.38,53.7494 1470.5,55C 1464.18,55.4995 1457.84,55.6662 1451.5,55.5C 1455.18,54.4905 1458.51,52.6572 1461.5,50C 1461.04,49.586 1460.71,49.086 1460.5,48.5C 1461.69,44.6234 1463.02,40.7901 1464.5,37C 1464.19,31.2207 1465.19,25.554 1467.5,20C 1466.76,16.467 1466.76,13.1336 1467.5,10C 1470.17,8 1470.17,6 1467.5,4C 1467.83,3.66667 1468.17,3.33333 1468.5,3C 1467.17,2.33333 1465.83,1.66667 1464.5,1C 1460.31,0.823821 1456.31,0.323821 1452.5,-0.5 Z"/></g>
<g><path style="opacity:1" fill="#a707fe" d="M 418.5,-0.5 C 423.167,-0.5 427.833,-0.5 432.5,-0.5C 442.37,0.213557 452.37,0.880224 462.5,1.5C 463.29,2.79423 464.29,3.9609 465.5,5C 464.802,5.97073 464.802,7.1374 465.5,8.5C 464.628,13.4796 463.295,18.6463 461.5,24C 462.392,29.5937 461.392,35.2604 458.5,41C 459.3,42.7883 459.634,44.455 459.5,46C 458.017,49.923 456.684,53.923 455.5,58C 455.833,59 456.167,60 456.5,61C 454.646,62.2896 454.313,63.7896 455.5,65.5C 453.33,69.5037 452.663,73.6704 453.5,78C 451.646,79.2896 451.313,80.7896 452.5,82.5C 450.33,86.5037 449.663,90.6704 450.5,95C 448.646,96.2896 448.313,97.7896 449.5,99.5C 448.872,102.651 447.872,105.984 446.5,109.5C 447.991,111.541 447.658,113.041 445.5,114C 449.152,114.499 452.818,114.665 456.5,114.5C 456.579,115.93 456.246,117.264 455.5,118.5C 451.878,119.325 448.211,119.825 444.5,120C 443.765,123.134 443.765,126.467 444.5,130C 442.082,140.152 439.749,150.319 437.5,160.5C 437.846,161.849 438.179,163.183 438.5,164.5C 436.621,164.393 436.288,164.893 437.5,166C 462.5,166.667 487.5,166.667 512.5,166C 516.356,165.823 520.023,165.323 523.5,164.5C 534.648,164.908 543.648,161.075 550.5,153C 549.346,152.086 549.513,151.253 551,150.5C 551.333,150.833 551.667,151.167 552,151.5C 561.007,140.577 570.507,130.077 580.5,120C 584.167,119.667 587.833,119.333 591.5,119C 592.293,117.915 592.96,116.748 593.5,115.5C 590.553,114.679 587.553,114.179 584.5,114C 595.075,102.58 606.075,91.08 617.5,79.5C 630.167,79.5 642.833,79.5 655.5,79.5C 660.316,80.3261 665.316,80.8261 670.5,81C 671.056,81.3826 671.389,81.8826 671.5,82.5C 671.977,84.3384 672.31,86.1717 672.5,88C 666.5,94.6666 660,101.167 653,107.5C 652.682,109.061 651.849,110.228 650.5,111C 650.833,111.333 651.167,111.667 651.5,112C 649.956,112.29 648.623,112.956 647.5,114C 650.5,114.333 653.5,114.667 656.5,115C 652.887,118.826 648.387,120.66 643,120.5C 642.667,120.167 642.333,119.833 642,119.5C 639.342,122.51 637.009,125.843 635,129.5C 634.667,129.167 634.333,128.833 634,128.5C 626,137.167 618,145.833 610,154.5C 609.682,156.061 608.849,157.228 607.5,158C 599.301,166.533 590.801,174.7 582,182.5C 581.667,182.167 581.333,181.833 581,181.5C 579.365,182.726 577.865,184.059 576.5,185.5C 578.657,185.781 580.323,187.281 581.5,190C 588.51,195.016 594.176,201.349 598.5,209C 599.833,210.333 601.167,211.667 602.5,213C 601.366,214.016 601.699,214.683 603.5,215C 603.5,216 603.5,217 603.5,218C 604.579,218.956 605.745,219.789 607,220.5C 607.617,221.449 607.451,222.282 606.5,223C 606.802,224.655 608.136,225.988 610.5,227C 610.5,228 610.5,229 610.5,230C 615.823,230.499 621.156,230.666 626.5,230.5C 629.167,230.5 631.833,230.5 634.5,230.5C 634.389,231.117 634.056,231.617 633.5,232C 635.859,234.05 637.193,236.217 637.5,238.5C 635.5,238.5 633.5,238.5 631.5,238.5C 626.156,238.334 620.823,238.501 615.5,239C 622.209,249.519 628.709,260.686 635,272.5C 636.814,275.642 638.981,278.475 641.5,281C 640.366,282.016 640.699,282.683 642.5,283C 641.366,284.016 641.699,284.683 643.5,285C 642.359,285.741 642.359,286.575 643.5,287.5C 648.792,288.495 654.125,288.828 659.5,288.5C 694.833,288.5 730.167,288.5 765.5,288.5C 769.884,288.826 774.217,288.492 778.5,287.5C 772.916,281.867 768.916,275.034 766.5,267C 765.72,264.302 764.387,261.969 762.5,260C 763.634,258.984 763.301,258.317 761.5,258C 761.254,256.94 761.254,255.773 761.5,254.5C 757.537,245.58 753.87,236.58 750.5,227.5C 747.204,219.257 743.538,211.257 739.5,203.5C 739.834,200.509 738.834,198.176 736.5,196.5C 735.911,191.898 734.244,187.731 731.5,184C 731.833,183.667 732.167,183.333 732.5,183C 730.537,181.238 729.204,179.571 728.5,178C 728.957,177.586 729.291,177.086 729.5,176.5C 727.761,173.636 726.094,170.803 724.5,168C 724.833,167.667 725.167,167.333 725.5,167C 724.72,164.302 723.387,161.969 721.5,160C 721.833,159.667 722.167,159.333 722.5,159C 721.5,158 720.5,157 719.5,156C 720.489,153.77 719.822,151.936 717.5,150.5C 717.709,149.914 718.043,149.414 718.5,149C 714.584,139.862 710.584,131.196 706.5,123C 707.641,122.259 707.641,121.425 706.5,120.5C 709.5,119.833 712.5,119.167 715.5,118.5C 714.754,117.264 714.421,115.93 714.5,114.5C 710.774,114.823 707.107,114.489 703.5,113.5C 701.134,110.104 699.467,106.771 698.5,103.5C 698.834,100.509 697.834,98.1757 695.5,96.5C 695.915,93.632 694.915,91.4653 692.5,90C 692.669,85.7021 694.336,82.2021 697.5,79.5C 709.833,79.5 722.167,79.5 734.5,79.5C 739.567,80.1882 744.733,80.8549 750,81.5C 750.333,81.1667 750.667,80.8333 751,80.5C 752.869,83.5978 754.702,86.0978 756.5,88C 756.043,88.414 755.709,88.914 755.5,89.5C 756.64,91.4734 757.973,93.3067 759.5,95C 759.52,100.294 761.52,104.961 765.5,109C 764.269,110.183 764.269,111.349 765.5,112.5C 769.283,114.024 773.283,115.024 777.5,115.5C 776.167,116.5 776.167,117.5 777.5,118.5C 774.553,119.321 771.553,119.821 768.5,120C 770.394,121.079 770.727,122.413 769.5,124C 770.998,127.999 772.998,131.666 775.5,135C 774.366,136.016 774.699,136.683 776.5,137C 776.043,137.414 775.709,137.914 775.5,138.5C 776.64,140.473 777.973,142.307 779.5,144C 779.517,149.346 781.517,154.013 785.5,158C 784.184,159.978 784.684,161.478 787,162.5C 787.684,163.784 787.517,164.951 786.5,166C 788.5,169.667 790.5,173.333 792.5,177C 791.366,178.016 791.699,178.683 793.5,179C 792.729,180.998 793.395,182.665 795.5,184C 794.366,185.016 794.699,185.683 796.5,186C 796.043,186.414 795.709,186.914 795.5,187.5C 796.64,189.473 797.973,191.307 799.5,193C 799.043,193.414 798.709,193.914 798.5,194.5C 800.124,199.64 802.458,203.807 805.5,207C 804.978,207.561 804.645,208.228 804.5,209C 806.264,214.24 808.93,219.907 812.5,226C 811.366,227.016 811.699,227.683 813.5,228C 812.167,228.667 812.167,229.333 813.5,230C 818.489,230.499 823.489,230.666 828.5,230.5C 830.833,230.5 833.167,230.5 835.5,230.5C 835.577,231.75 836.244,232.583 837.5,233C 836.366,234.016 836.699,234.683 838.5,235C 837.167,236 837.167,237 838.5,238C 843.684,238.816 848.684,238.65 853.5,237.5C 854.567,234.94 856.567,232.773 859.5,231C 856.076,230.253 852.743,230.42 849.5,231.5C 845.5,230.833 841.5,230.167 837.5,229.5C 847.311,217.514 856.977,205.348 866.5,193C 866.167,192.667 865.833,192.333 865.5,192C 867.679,191.558 868.345,190.558 867.5,189C 871.673,185.159 875.507,180.993 879,176.5C 880.289,173.832 881.456,171.165 882.5,168.5C 883.675,168.719 884.675,168.386 885.5,167.5C 888.523,163.394 891.356,159.727 894,156.5C 894.483,155.552 894.649,154.552 894.5,153.5C 896.027,153.573 897.027,152.906 897.5,151.5C 901.597,146.549 905.597,141.383 909.5,136C 909.167,135.667 908.833,135.333 908.5,135C 911.816,133.588 913.482,131.422 913.5,128.5C 915.027,128.573 916.027,127.906 916.5,126.5C 917.546,123.939 919.212,121.773 921.5,120C 925.682,119.616 929.515,119.116 933,118.5C 933.465,117.069 934.299,115.903 935.5,115C 932.447,114.821 929.447,114.321 926.5,113.5C 933.72,103.797 941.053,94.2966 948.5,85C 947.167,84.3333 947.167,83.6667 948.5,83C 955.279,80.7195 962.279,79.8861 969.5,80.5C 969.5,79.1667 969.5,77.8333 969.5,76.5C 987.833,76.5 1006.17,76.5 1024.5,76.5C 1029.43,76.8025 1034.26,76.4692 1039,75.5C 1039.65,73.765 1039.48,72.0983 1038.5,70.5C 1040.57,66.4367 1041.9,62.1034 1042.5,57.5C 1042.01,56.5539 1041.68,55.5539 1041.5,54.5C 1044.09,49.1277 1045.09,43.6277 1044.5,38C 1046.26,32.474 1048.09,26.974 1050,21.5C 1051.63,22.4119 1052.46,21.7453 1052.5,19.5C 1069.5,19.5 1086.5,19.5 1103.5,19.5C 1107.01,22.2827 1108.34,25.9494 1107.5,30.5C 1104.33,45.7052 1101.66,61.0385 1099.5,76.5C 1104.5,76.5 1109.5,76.5 1114.5,76.5C 1135.83,76.5 1157.17,76.5 1178.5,76.5C 1179.5,77.8333 1180.5,79.1667 1181.5,80.5C 1158.83,80.5 1136.17,80.5 1113.5,80.5C 1108.49,80.3341 1103.49,80.5007 1098.5,81C 1097.43,82.2504 1097.43,83.5838 1098.5,85C 1098.24,86.2613 1097.57,87.2613 1096.5,88C 1096.96,88.414 1097.29,88.914 1097.5,89.5C 1095.12,94.7927 1094.45,99.9593 1095.5,105C 1094.07,107.659 1093.07,110.492 1092.5,113.5C 1095.78,114.324 1099.12,114.824 1102.5,115C 1101.29,116.113 1101.29,117.28 1102.5,118.5C 1098.69,119.071 1095.02,119.904 1091.5,121C 1091.83,121.333 1092.17,121.667 1092.5,122C 1090.52,125.21 1089.86,128.543 1090.5,132C 1148.33,132.832 1206,132.665 1263.5,131.5C 1267.88,131.826 1272.22,131.492 1276.5,130.5C 1277.97,126.952 1278.97,123.285 1279.5,119.5C 1283.63,120.11 1287.3,119.277 1290.5,117C 1287.3,114.723 1283.63,113.89 1279.5,114.5C 1281.02,109.765 1282.35,104.932 1283.5,100C 1285.67,84.6794 1288.33,69.0128 1291.5,53C 1291.17,52 1290.83,51 1290.5,50C 1293.19,42.3664 1295.19,34.5331 1296.5,26.5C 1296.29,25.914 1295.96,25.414 1295.5,25C 1297.57,24.0524 1299.07,22.5524 1300,20.5C 1301.31,21.2871 1302.48,20.9538 1303.5,19.5C 1303.83,19.5 1304.17,19.5 1304.5,19.5C 1320.33,20.3314 1336.33,20.8314 1352.5,21C 1353.53,21.5133 1354.53,22.0133 1355.5,22.5C 1356.09,28.1508 1355.42,33.8174 1353.5,39.5C 1353.93,40.2935 1354.26,41.1268 1354.5,42C 1352.18,52.946 1349.85,63.6126 1347.5,74C 1347.64,74.772 1347.98,75.4387 1348.5,76C 1353.15,76.4992 1357.82,76.6658 1362.5,76.5C 1372.5,76.5 1382.5,76.5 1392.5,76.5C 1393.41,77.7024 1393.41,79.0357 1392.5,80.5C 1391.17,80.5 1389.83,80.5 1388.5,80.5C 1379.5,80.5 1370.5,80.5 1361.5,80.5C 1356.57,80.1975 1351.74,80.5308 1347,81.5C 1344.96,86.5211 1344.46,91.3544 1345.5,96C 1343.48,99.5833 1342.15,103.417 1341.5,107.5C 1342.33,109.941 1342.33,112.107 1341.5,114C 1342.79,114.49 1344.13,114.657 1345.5,114.5C 1345.5,116.167 1345.5,117.833 1345.5,119.5C 1341.22,118.483 1338.89,120.15 1338.5,124.5C 1339.26,126.451 1339.59,128.284 1339.5,130C 1337.98,133.736 1336.65,137.57 1335.5,141.5C 1336.26,143.451 1336.59,145.284 1336.5,147C 1333.37,152.622 1332.37,158.289 1333.5,164C 1330.37,169.622 1329.37,175.289 1330.5,181C 1327.37,186.622 1326.37,192.289 1327.5,198C 1324.75,202.561 1323.75,207.394 1324.5,212.5C 1323.21,217.034 1321.88,221.868 1320.5,227C 1320.74,227.873 1321.07,228.707 1321.5,229.5C 1319.69,234.129 1318.36,238.962 1317.5,244C 1318.3,245.788 1318.63,247.455 1318.5,249C 1317.02,252.923 1315.68,256.923 1314.5,261C 1316.15,263.196 1315.81,265.029 1313.5,266.5C 1313.83,267.167 1314.17,267.833 1314.5,268.5C 1312.33,272.504 1311.66,276.67 1312.5,281C 1311.51,283.342 1310.51,285.676 1309.5,288C 1300,289.59 1299.67,290.923 1308.5,292C 1307.13,294.255 1305.8,295.755 1304.5,296.5C 1286.83,296.5 1269.17,296.5 1251.5,296.5C 1252.32,294.692 1251.65,293.192 1249.5,292C 1246.85,291.503 1244.19,291.336 1241.5,291.5C 1241.5,290.5 1241.5,289.5 1241.5,288.5C 1244.45,288.777 1247.28,288.444 1250,287.5C 1251.26,283.959 1251.42,280.459 1250.5,277C 1252.36,273.257 1253.69,269.257 1254.5,265C 1255.65,254.935 1257.32,244.768 1259.5,234.5C 1259.32,233.446 1258.99,232.446 1258.5,231.5C 1259.49,230.532 1260.16,229.365 1260.5,228C 1262.15,217.121 1264.15,206.121 1266.5,195C 1266.26,194.127 1265.93,193.293 1265.5,192.5C 1267.61,189.264 1268.28,185.931 1267.5,182.5C 1205.17,182.333 1142.83,182.5 1080.5,183C 1079.94,183.383 1079.61,183.883 1079.5,184.5C 1079.54,185.583 1079.87,186.583 1080.5,187.5C 1078.56,189.122 1078.23,190.956 1079.5,193C 1077.21,196.951 1076.54,201.118 1077.5,205.5C 1075.73,209.87 1074.4,214.37 1073.5,219C 1073.83,220 1074.17,221 1074.5,222C 1073.71,224.616 1072.71,227.283 1071.5,230C 1070.76,233.134 1070.76,236.467 1071.5,240C 1069.19,245.554 1068.19,251.221 1068.5,257C 1067.89,259.515 1066.89,261.848 1065.5,264C 1064.76,267.169 1064.76,270.502 1065.5,274C 1063.41,274.953 1063.07,276.286 1064.5,278C 1062.34,281.644 1061.67,285.477 1062.5,289.5C 1059.86,293.643 1056.19,295.976 1051.5,296.5C 1036.5,296.5 1021.5,296.5 1006.5,296.5C 1004.37,295.874 1002.71,294.541 1001.5,292.5C 996.88,291.507 992.214,291.173 987.5,291.5C 978.167,291.5 968.833,291.5 959.5,291.5C 959.443,290.391 959.11,289.391 958.5,288.5C 968.167,288.5 977.833,288.5 987.5,288.5C 992.167,288.5 996.833,288.5 1001.5,288.5C 1006.21,258.996 1011.54,229.163 1017.5,199C 1018.91,189.53 1020.58,179.863 1022.5,170C 1022.41,168.893 1022.08,167.893 1021.5,167C 1023.41,163.128 1024.74,158.961 1025.5,154.5C 1025.01,153.554 1024.68,152.554 1024.5,151.5C 1025.36,149.913 1026.03,148.246 1026.5,146.5C 1027.72,137.458 1029.05,128.458 1030.5,119.5C 1033.83,119.5 1037.17,119.5 1040.5,119.5C 1040.23,117.549 1040.89,116.049 1042.5,115C 1039.18,114.502 1035.85,114.335 1032.5,114.5C 1033.44,106.444 1034.78,98.4443 1036.5,90.5C 1036.32,89.4461 1035.99,88.4461 1035.5,87.5C 1036.95,85.5334 1037.95,83.3668 1038.5,81C 1033.51,80.5007 1028.51,80.3341 1023.5,80.5C 1022.83,80.5 1022.17,80.5 1021.5,80.5C 1016.16,80.334 1010.82,80.5006 1005.5,81C 1009.12,84.826 1008.78,87.826 1004.5,90C 1004.96,90.414 1005.29,90.914 1005.5,91.5C 1004.09,92.2432 1002.76,93.0766 1001.5,94C 1001.96,94.414 1002.29,94.914 1002.5,95.5C 1001.09,96.2432 999.759,97.0766 998.5,98C 998.957,98.414 999.291,98.914 999.5,99.5C 998.092,100.243 996.759,101.077 995.5,102C 995.957,102.414 996.291,102.914 996.5,103.5C 995.092,104.243 993.759,105.077 992.5,106C 993.833,107.84 993.666,108.34 992,107.5C 991.167,108.333 990.333,109.167 989.5,110C 990.833,111.84 990.666,112.34 989,111.5C 988.167,112.333 987.333,113.167 986.5,114C 990.211,114.175 993.878,114.675 997.5,115.5C 997.154,116.696 996.654,116.696 996,115.5C 994.242,116.469 993.742,117.636 994.5,119C 990.911,119.207 987.411,119.707 984,120.5C 982.636,119.742 981.469,120.242 980.5,122C 981.833,123.84 981.666,124.34 980,123.5C 979.167,124.333 978.333,125.167 977.5,126C 978.833,127.84 978.666,128.34 977,127.5C 976.167,128.333 975.333,129.167 974.5,130C 975.833,131.84 975.666,132.34 974,131.5C 973.167,132.333 972.333,133.167 971.5,134C 972.833,135.84 972.666,136.34 971,135.5C 970.167,136.333 969.333,137.167 968.5,138C 969.833,139.84 969.666,140.34 968,139.5C 967.167,140.333 966.333,141.167 965.5,142C 966.833,143.84 966.666,144.34 965,143.5C 964.167,144.333 963.333,145.167 962.5,146C 963.833,147.84 963.666,148.34 962,147.5C 961.167,148.333 960.333,149.167 959.5,150C 960.833,151.84 960.666,152.34 959,151.5C 958.167,152.333 957.333,153.167 956.5,154C 957.833,155.84 957.666,156.34 956,155.5C 955.167,156.333 954.333,157.167 953.5,158C 954.833,159.84 954.666,160.34 953,159.5C 951.242,160.469 950.742,161.636 951.5,163C 949.041,163.724 948.041,165.057 948.5,167C 946.041,167.724 945.041,169.057 945.5,171C 943.041,171.724 942.041,173.057 942.5,175C 940.041,175.724 939.041,177.057 939.5,179C 937.041,179.724 936.041,181.057 936.5,183C 934.041,183.724 933.041,185.057 933.5,187C 931.041,187.724 930.041,189.057 930.5,191C 928.041,191.724 927.041,193.057 927.5,195C 925.041,195.724 924.041,197.057 924.5,199C 922.041,199.724 921.041,201.057 921.5,203C 919.041,203.724 918.041,205.057 918.5,207C 916.041,207.724 915.041,209.057 915.5,211C 913.041,211.724 912.041,213.057 912.5,215C 910.041,215.724 909.041,217.057 909.5,219C 905.854,222.316 902.521,225.982 899.5,230C 904.823,230.499 910.156,230.666 915.5,230.5C 917.5,230.5 919.5,230.5 921.5,230.5C 919.5,233.167 917.5,235.833 915.5,238.5C 913.167,238.5 910.833,238.5 908.5,238.5C 903.489,238.334 898.489,238.501 893.5,239C 883.872,250.781 874.872,262.948 866.5,275.5C 865.5,275.833 864.833,276.5 864.5,277.5C 844.245,303.906 824.245,330.406 804.5,357C 804.833,357.333 805.167,357.667 805.5,358C 801,361.167 797.167,365 794,369.5C 793.667,369.167 793.333,368.833 793,368.5C 792.097,369.701 790.931,370.535 789.5,371C 788.167,371.667 788.167,372.333 789.5,373C 788.24,374.113 787.073,374.28 786,373.5C 780.516,376.625 774.85,379.292 769,381.5C 768.439,380.978 767.772,380.645 767,380.5C 759.79,383.11 752.623,384.443 745.5,384.5C 742.5,384.5 739.5,384.5 736.5,384.5C 726.675,383.67 716.675,383.17 706.5,383C 705.333,382.5 704.5,381.667 704,380.5C 704.087,375.527 704.421,370.527 705,365.5C 706.641,361.185 707.808,356.685 708.5,352C 708.355,351.228 708.022,350.561 707.5,350C 709.32,347.395 709.986,344.728 709.5,342C 711.592,339.964 713.926,338.464 716.5,337.5C 720.833,337.5 725.167,337.5 729.5,337.5C 733.981,338.648 738.648,338.815 743.5,338C 745.414,336.88 747.248,336.714 749,337.5C 750.261,337.241 751.261,336.574 752,335.5C 752.333,335.833 752.667,336.167 753,336.5C 753.605,334.519 754.605,334.185 756,335.5C 759.999,332.837 763.665,329.171 767,324.5C 771.734,316.764 777.234,309.597 783.5,303C 782.944,302.617 782.611,302.117 782.5,301.5C 784.027,301.573 785.027,300.906 785.5,299.5C 786.338,299.158 786.672,298.492 786.5,297.5C 787.5,297.167 788.167,296.5 788.5,295.5C 789.364,294.312 790.364,293.145 791.5,292C 786.511,291.501 781.511,291.334 776.5,291.5C 737.5,291.5 698.5,291.5 659.5,291.5C 654.156,291.334 648.823,291.501 643.5,292C 643.833,292.333 644.167,292.667 644.5,293C 642.676,293.66 641.343,294.827 640.5,296.5C 623.167,296.5 605.833,296.5 588.5,296.5C 587.282,295.839 585.949,295.172 584.5,294.5C 579.842,288.273 576.009,281.606 573,274.5C 571.748,272.999 570.748,271.332 570,269.5C 569.667,269.833 569.333,270.167 569,270.5C 565.947,263.33 562.613,256.33 559,249.5C 557.748,247.999 556.748,246.332 556,244.5C 555.667,244.833 555.333,245.167 555,245.5C 554.122,240.74 551.955,236.74 548.5,233.5C 547.281,226.879 543.948,221.712 538.5,218C 538.833,217.667 539.167,217.333 539.5,217C 534.433,212.301 528.433,209.468 521.5,208.5C 515.539,207.506 509.539,207.506 503.5,208.5C 502.5,208.5 501.5,208.5 500.5,208.5C 476.997,207.171 453.33,207.171 429.5,208.5C 428.246,210.643 428.246,212.643 429.5,214.5C 427.281,219.593 425.947,224.926 425.5,230.5C 430.5,230.5 435.5,230.5 440.5,230.5C 442.833,230.5 445.167,230.5 447.5,230.5C 448.768,231.787 448.435,232.787 446.5,233.5C 447.535,235.128 447.535,236.795 446.5,238.5C 443.833,238.5 441.167,238.5 438.5,238.5C 433.5,238.5 428.5,238.5 423.5,238.5C 422.966,242.102 422.966,245.602 423.5,249C 421.21,249.79 420.877,251.124 422.5,253C 422.241,254.261 421.574,255.261 420.5,256C 420.957,256.414 421.291,256.914 421.5,257.5C 419.75,261.623 419.083,265.79 419.5,270C 417.553,276.219 416.22,282.385 415.5,288.5C 414.283,291.067 412.616,293.4 410.5,295.5C 408.585,295.216 406.919,295.549 405.5,296.5C 392.167,296.5 378.833,296.5 365.5,296.5C 363.047,295.783 360.713,294.616 358.5,293C 366.579,243.718 375.246,194.384 384.5,145C 384.415,143.893 384.081,142.893 383.5,142C 385.411,138.128 386.744,133.961 387.5,129.5C 387.013,128.554 386.68,127.554 386.5,126.5C 387.894,124.354 388.56,122.021 388.5,119.5C 391.85,119.665 395.183,119.498 398.5,119C 399.38,117.644 399.714,116.144 399.5,114.5C 396.15,114.665 392.817,114.498 389.5,114C 393.549,92.2095 397.549,70.3762 401.5,48.5C 401.32,47.4461 400.987,46.4461 400.5,45.5C 402.572,41.4367 403.905,37.1034 404.5,32.5C 404.013,31.5539 403.68,30.5539 403.5,29.5C 406.088,24.1277 407.088,18.6277 406.5,13C 407.513,10.6446 408.513,8.31124 409.5,6C 409.167,5.66667 408.833,5.33333 408.5,5C 411.448,2.36135 414.782,0.528019 418.5,-0.5 Z M 1021.5,80.5 C 1022.17,80.5 1022.83,80.5 1023.5,80.5C 1023.79,82.7354 1023.46,84.7354 1022.5,86.5C 1022.67,84.3792 1022.34,82.3792 1021.5,80.5 Z M 681.5,94.5 C 707.117,157.733 733.284,220.733 760,283.5C 761.73,285.402 763.563,287.069 765.5,288.5C 730.167,288.5 694.833,288.5 659.5,288.5C 650.155,271.806 640.821,255.139 631.5,238.5C 633.5,238.5 635.5,238.5 637.5,238.5C 642.544,238.827 647.544,238.494 652.5,237.5C 651.365,235.201 650.032,233.034 648.5,231C 643.845,230.501 639.179,230.334 634.5,230.5C 631.833,230.5 629.167,230.5 626.5,230.5C 620.764,219.361 614.264,208.695 607,198.5C 602.588,193.582 597.755,189.249 592.5,185.5C 603.178,177.892 613.011,169.226 622,159.5C 633.833,146.333 645.667,133.167 657.5,120C 661.167,119.667 664.833,119.333 668.5,119C 669.833,117.667 671.167,116.333 672.5,115C 669.5,114.667 666.5,114.333 663.5,114C 669.366,107.304 675.366,100.804 681.5,94.5 Z"/></g>
<g><path style="opacity:1" fill="#a712fb" d="M 1419.5,-0.5 C 1430.5,-0.5 1441.5,-0.5 1452.5,-0.5C 1456.31,0.323821 1460.31,0.823821 1464.5,1C 1465.83,1.66667 1467.17,2.33333 1468.5,3C 1468.17,3.33333 1467.83,3.66667 1467.5,4C 1470.17,6 1470.17,8 1467.5,10C 1466.76,13.1336 1466.76,16.467 1467.5,20C 1465.19,25.554 1464.19,31.2207 1464.5,37C 1463.02,40.7901 1461.69,44.6234 1460.5,48.5C 1460.71,49.086 1461.04,49.586 1461.5,50C 1458.51,52.6572 1455.18,54.4905 1451.5,55.5C 1437.17,55.5 1422.83,55.5 1408.5,55.5C 1406.37,52.7453 1405.04,49.5786 1404.5,46C 1406.74,41.4766 1407.41,36.8099 1406.5,32C 1408.41,28.1279 1409.74,23.9612 1410.5,19.5C 1410.01,18.5539 1409.68,17.5539 1409.5,16.5C 1411.09,12.9691 1412.26,9.30243 1413,5.5C 1414.91,3.14354 1417.08,1.14354 1419.5,-0.5 Z"/></g>
<g><path style="opacity:0.935" fill="#c82b3d" d="M 119.5,19.5 C 112.134,21.2617 104.468,23.2617 96.5,25.5C 73.476,34.6855 58.3094,51.0188 51,74.5C 48.1012,86.1935 45.9345,98.0268 44.5,110C 44.2451,111.326 43.5784,112.326 42.5,113C 45.9756,114.254 49.6423,114.921 53.5,115C 52.2889,116.113 52.2889,117.28 53.5,118.5C 49.5408,119.327 45.5408,119.827 41.5,120C 42.4246,126.796 42.4246,133.129 41.5,139C 43.6015,140.733 43.9348,142.733 42.5,145C 44.5922,145.953 44.9255,147.286 43.5,149C 45.3008,149.317 45.6341,149.984 44.5,151C 45.9733,151.71 46.6399,152.876 46.5,154.5C 46.2291,156.38 46.8958,157.713 48.5,158.5C 53.1577,163.658 57.991,168.658 63,173.5C 63.3333,173.167 63.6667,172.833 64,172.5C 67.7934,174.316 71.46,176.316 75,178.5C 76.1475,177.542 77.1475,177.875 78,179.5C 78.5613,178.978 79.228,178.645 80,178.5C 89.5932,179.925 99.0932,180.925 108.5,181.5C 95.121,181.881 81.7876,181.381 68.5,180C 48.4938,176.989 35.6605,165.822 30,146.5C 28.4873,137.553 28.154,128.553 29,119.5C 31.3539,103.376 34.3539,87.3765 38,71.5C 52.2516,34.4322 79.4182,17.0989 119.5,19.5 Z"/></g>
<g><path style="opacity:0.353" fill="#4f8282" d="M 120.5,19.5 C 196.167,19.5 271.833,19.5 347.5,19.5C 347.833,20.1667 348.167,20.8333 348.5,21.5C 272.373,20.8392 196.373,20.1726 120.5,19.5 Z"/></g>
<g><path style="opacity:0.934" fill="#3fdbd8" d="M 347.5,19.5 C 352.179,19.3342 356.845,19.5008 361.5,20C 363.919,21.6856 364.919,24.019 364.5,27C 362.378,41.2336 359.878,55.4003 357,69.5C 355.52,72.6626 353.02,74.496 349.5,75C 280.501,75.5 211.501,75.6667 142.5,75.5C 206.86,74.8281 271.36,74.1615 336,73.5C 336.772,73.6448 337.439,73.9781 338,74.5C 339.643,72.0232 341.476,69.6898 343.5,67.5C 343.167,66.8333 342.833,66.1667 342.5,65.5C 344.019,60.5825 345.352,55.9159 346.5,51.5C 345.755,46.3939 346.755,41.5606 349.5,37C 349.589,35.2839 349.256,33.4506 348.5,31.5C 349.265,29.7049 349.932,27.8716 350.5,26C 349.586,24.5936 348.92,23.0936 348.5,21.5C 348.167,20.8333 347.833,20.1667 347.5,19.5 Z"/></g>
<g><path style="opacity:0.951" fill="#c9223b" d="M 1052.5,19.5 C 1052.46,21.7453 1051.63,22.4119 1050,21.5C 1048.09,26.974 1046.26,32.474 1044.5,38C 1045.09,43.6277 1044.09,49.1277 1041.5,54.5C 1041.68,55.5539 1042.01,56.5539 1042.5,57.5C 1041.9,62.1034 1040.57,66.4367 1038.5,70.5C 1039.48,72.0983 1039.65,73.765 1039,75.5C 1034.26,76.4692 1029.43,76.8025 1024.5,76.5C 1027.66,59.5414 1030.83,42.5414 1034,25.5C 1035.17,23 1037,21.1667 1039.5,20C 1043.82,19.501 1048.15,19.3343 1052.5,19.5 Z"/></g>
<g><path style="opacity:0.955" fill="#26f6f3" d="M 1105.5,19.5 C 1110.18,19.3342 1114.85,19.5008 1119.5,20C 1122.43,23.2572 1123.26,27.0906 1122,31.5C 1119.07,46.4405 1116.57,61.4405 1114.5,76.5C 1109.5,76.5 1104.5,76.5 1099.5,76.5C 1101.66,61.0385 1104.33,45.7052 1107.5,30.5C 1108.64,28.6251 1108.8,25.9585 1108,22.5C 1106.96,21.6266 1106.12,20.6266 1105.5,19.5 Z"/></g>
<g><path style="opacity:0.954" fill="#ca253c" d="M 1303.5,19.5 C 1302.48,20.9538 1301.31,21.2871 1300,20.5C 1299.07,22.5524 1297.57,24.0524 1295.5,25C 1295.96,25.414 1296.29,25.914 1296.5,26.5C 1295.19,34.5331 1293.19,42.3664 1290.5,50C 1290.83,51 1291.17,52 1291.5,53C 1288.33,69.0128 1285.67,84.6794 1283.5,100C 1282.35,104.932 1281.02,109.765 1279.5,114.5C 1283.63,113.89 1287.3,114.723 1290.5,117C 1287.3,119.277 1283.63,120.11 1279.5,119.5C 1278.97,123.285 1277.97,126.952 1276.5,130.5C 1272.22,131.492 1267.88,131.826 1263.5,131.5C 1269.6,96.5014 1275.77,61.5014 1282,26.5C 1282.79,23.4173 1284.62,21.2506 1287.5,20C 1292.82,19.5006 1298.16,19.334 1303.5,19.5 Z"/></g>
<g><path style="opacity:0.353" fill="#6f7f8d" d="M 1304.5,19.5 C 1320.83,19.5 1337.17,19.5 1353.5,19.5C 1354.55,20.2223 1355.22,21.2223 1355.5,22.5C 1354.53,22.0133 1353.53,21.5133 1352.5,21C 1336.33,20.8314 1320.33,20.3314 1304.5,19.5 Z"/></g>
<g><path style="opacity:0.956" fill="#30f4f0" d="M 1353.5,19.5 C 1358.18,19.3342 1362.85,19.5008 1367.5,20C 1369.66,21.6034 1370.99,23.77 1371.5,26.5C 1368.28,43.126 1365.28,59.7927 1362.5,76.5C 1357.82,76.6658 1353.15,76.4992 1348.5,76C 1347.98,75.4387 1347.64,74.772 1347.5,74C 1349.85,63.6126 1352.18,52.946 1354.5,42C 1354.26,41.1268 1353.93,40.2935 1353.5,39.5C 1355.42,33.8174 1356.09,28.1508 1355.5,22.5C 1355.22,21.2223 1354.55,20.2223 1353.5,19.5 Z"/></g>
<g><path style="opacity:1" fill="#a705fe" d="M 119.5,19.5 C 119.833,19.5 120.167,19.5 120.5,19.5C 196.373,20.1726 272.373,20.8392 348.5,21.5C 348.92,23.0936 349.586,24.5936 350.5,26C 349.932,27.8716 349.265,29.7049 348.5,31.5C 349.256,33.4506 349.589,35.2839 349.5,37C 346.755,41.5606 345.755,46.3939 346.5,51.5C 345.352,55.9159 344.019,60.5825 342.5,65.5C 342.833,66.1667 343.167,66.8333 343.5,67.5C 341.476,69.6898 339.643,72.0232 338,74.5C 337.439,73.9781 336.772,73.6448 336,73.5C 271.36,74.1615 206.86,74.8281 142.5,75.5C 142.167,75.5 141.833,75.5 141.5,75.5C 134.597,75.2634 128.097,75.2634 122,75.5C 115.467,78.3592 110.967,83.1926 108.5,90C 108.957,90.414 109.291,90.914 109.5,91.5C 109.021,95.3639 107.688,99.1973 105.5,103C 105.833,103.333 106.167,103.667 106.5,104C 104.863,107.285 104.196,110.785 104.5,114.5C 108.375,114.085 112.042,114.585 115.5,116C 115.167,117 114.833,118 114.5,119C 111.447,119.179 108.447,119.679 105.5,120.5C 104.141,122.306 104.475,123.806 106.5,125C 105.346,125.914 105.513,126.747 107,127.5C 107.333,127.167 107.667,126.833 108,126.5C 109.49,131.103 112.49,132.77 117,131.5C 117.333,132.167 117.667,132.833 118,133.5C 122.737,132.531 127.57,132.197 132.5,132.5C 181.5,132.5 230.5,132.5 279.5,132.5C 286.323,133.784 293.157,135.45 300,137.5C 302.226,135.841 303.893,136.508 305,139.5C 306.84,138.167 307.34,138.334 306.5,140C 309.607,140.654 312.441,142.487 315,145.5C 315.333,145.167 315.667,144.833 316,144.5C 319.518,148.317 322.684,151.817 325.5,155C 325.167,155.333 324.833,155.667 324.5,156C 325.833,157.667 327.167,159.333 328.5,161C 327.892,163.184 328.559,165.184 330.5,167C 330.043,167.414 329.709,167.914 329.5,168.5C 331.204,176.815 331.87,185.148 331.5,193.5C 330.616,199.104 329.282,204.604 327.5,210C 328.739,212.213 328.406,214.213 326.5,216C 326.645,216.772 326.978,217.439 327.5,218C 325.336,221.644 324.67,225.477 325.5,229.5C 330.12,230.493 334.786,230.827 339.5,230.5C 341.833,230.5 344.167,230.5 346.5,230.5C 345.272,232.01 345.272,233.51 346.5,235C 345.177,235.816 344.511,236.983 344.5,238.5C 342.167,238.5 339.833,238.5 337.5,238.5C 332.57,238.197 327.737,238.531 323,239.5C 321.409,242.967 319.909,246.467 318.5,250C 318.833,250.333 319.167,250.667 319.5,251C 318.5,252 317.5,253 316.5,254C 317.535,255.507 317.368,257.007 316,258.5C 312.326,262.84 308.659,267.173 305,271.5C 304.667,272.5 304.333,273.5 304,274.5C 300.62,275.871 297.787,278.038 295.5,281C 296.34,282.666 295.84,282.833 294,281.5C 291.342,283.956 288.675,285.623 286,286.5C 282.691,288.698 279.357,290.031 276,290.5C 275.676,292.569 274.842,292.902 273.5,291.5C 271.189,292.214 269.022,293.214 267,294.5C 265.605,293.185 264.605,293.519 264,295.5C 262.601,295.499 261.101,295.165 259.5,294.5C 258.261,294.942 257.261,295.609 256.5,296.5C 177.167,296.5 97.8333,296.5 18.5,296.5C 15.9599,295.639 13.9599,293.972 12.5,291.5C 15.0973,282.051 16.4306,272.551 16.5,263C 17.5784,262.326 18.2451,261.326 18.5,260C 18.9491,255.5 19.9491,251.166 21.5,247C 21.1667,246.667 20.8333,246.333 20.5,246C 22.8981,244.476 25.2314,242.976 27.5,241.5C 31.8333,241.5 36.1667,241.5 40.5,241.5C 109.702,242.815 178.868,242.815 248,241.5C 251.151,239.192 254.318,237.692 257.5,237C 261.183,233.303 263.849,228.97 265.5,224C 265.043,223.586 264.709,223.086 264.5,222.5C 265.885,216.725 267.219,210.891 268.5,205C 269.406,200.853 269.573,196.686 269,192.5C 267.249,190.51 266.249,188.177 266,185.5C 263.842,183.506 261.342,182.172 258.5,181.5C 210.027,180.179 161.694,180.179 113.5,181.5C 111.833,181.5 110.167,181.5 108.5,181.5C 99.0932,180.925 89.5932,179.925 80,178.5C 79.228,178.645 78.5613,178.978 78,179.5C 77.1475,177.875 76.1475,177.542 75,178.5C 71.46,176.316 67.7934,174.316 64,172.5C 63.6667,172.833 63.3333,173.167 63,173.5C 57.991,168.658 53.1577,163.658 48.5,158.5C 48.3404,156.847 47.6737,155.514 46.5,154.5C 46.6399,152.876 45.9733,151.71 44.5,151C 45.6341,149.984 45.3008,149.317 43.5,149C 44.9255,147.286 44.5922,145.953 42.5,145C 43.9348,142.733 43.6015,140.733 41.5,139C 42.4246,133.129 42.4246,126.796 41.5,120C 45.5408,119.827 49.5408,119.327 53.5,118.5C 52.2889,117.28 52.2889,116.113 53.5,115C 49.6423,114.921 45.9756,114.254 42.5,113C 43.5784,112.326 44.2451,111.326 44.5,110C 45.9345,98.0268 48.1012,86.1935 51,74.5C 58.3094,51.0188 73.476,34.6855 96.5,25.5C 104.468,23.2617 112.134,21.2617 119.5,19.5 Z"/></g>
<g><path style="opacity:1" fill="#a6747e" d="M 1103.5,19.5 C 1104.17,19.5 1104.83,19.5 1105.5,19.5C 1106.12,20.6266 1106.96,21.6266 1108,22.5C 1108.8,25.9585 1108.64,28.6251 1107.5,30.5C 1108.34,25.9494 1107.01,22.2827 1103.5,19.5 Z"/></g>
<g><path style="opacity:0.948" fill="#37f4ee" d="M 141.5,75.5 C 131.699,77.1318 125.532,82.7984 123,92.5C 121.29,99.7569 120.124,107.09 119.5,114.5C 122.898,114.18 126.232,114.513 129.5,115.5C 128.167,116.5 128.167,117.5 129.5,118.5C 126.232,119.487 122.898,119.82 119.5,119.5C 120.549,127.179 124.883,131.513 132.5,132.5C 127.57,132.197 122.737,132.531 118,133.5C 117.667,132.833 117.333,132.167 117,131.5C 112.49,132.77 109.49,131.103 108,126.5C 107.667,126.833 107.333,127.167 107,127.5C 105.513,126.747 105.346,125.914 106.5,125C 104.475,123.806 104.141,122.306 105.5,120.5C 108.447,119.679 111.447,119.179 114.5,119C 114.833,118 115.167,117 115.5,116C 112.042,114.585 108.375,114.085 104.5,114.5C 104.196,110.785 104.863,107.285 106.5,104C 106.167,103.667 105.833,103.333 105.5,103C 107.688,99.1973 109.021,95.3639 109.5,91.5C 109.291,90.914 108.957,90.414 108.5,90C 110.967,83.1926 115.467,78.3592 122,75.5C 128.097,75.2634 134.597,75.2634 141.5,75.5 Z"/></g>
<g><path style="opacity:0.97" fill="#ce2c40" d="M 862.5,76.5 C 863.234,77.7079 863.567,79.0413 863.5,80.5C 858.833,80.5 854.167,80.5 849.5,80.5C 849.67,79.1779 849.337,78.0113 848.5,77C 853.155,76.5008 857.821,76.3342 862.5,76.5 Z"/></g>
<g><path style="opacity:1" fill="#a805fd" d="M 862.5,76.5 C 883.167,76.5 903.833,76.5 924.5,76.5C 925.234,77.7079 925.567,79.0413 925.5,80.5C 904.833,80.5 884.167,80.5 863.5,80.5C 863.567,79.0413 863.234,77.7079 862.5,76.5 Z"/></g>
<g><path style="opacity:0.965" fill="#2bfaf5" d="M 924.5,76.5 C 929.5,76.5 934.5,76.5 939.5,76.5C 939.5,77.8333 939.5,79.1667 939.5,80.5C 938.833,80.5 938.167,80.5 937.5,80.5C 933.5,80.5 929.5,80.5 925.5,80.5C 925.567,79.0413 925.234,77.7079 924.5,76.5 Z"/></g>
<g><path style="opacity:0.922" fill="#36eeea" d="M 1178.5,76.5 C 1183.84,76.334 1189.18,76.5006 1194.5,77C 1195.5,78 1196.5,79 1197.5,80C 1192.18,80.4994 1186.84,80.666 1181.5,80.5C 1180.5,79.1667 1179.5,77.8333 1178.5,76.5 Z"/></g>
<g><path style="opacity:1" fill="#cb3742" d="M 1315.5,76.5 C 1320.18,76.3342 1324.85,76.5008 1329.5,77C 1330.34,78.0113 1330.67,79.1779 1330.5,80.5C 1326.15,80.6657 1321.82,80.499 1317.5,80C 1316.18,79.1841 1315.51,78.0174 1315.5,76.5 Z"/></g>
<g><path style="opacity:0.971" fill="#65eedb" d="M 1392.5,76.5 C 1406.18,78.7347 1420.18,79.7347 1434.5,79.5C 1423.96,80.2105 1413.3,80.8771 1402.5,81.5C 1399.77,80.7948 1396.94,80.1281 1394,79.5C 1393.62,80.056 1393.12,80.3893 1392.5,80.5C 1393.41,79.0357 1393.41,77.7024 1392.5,76.5 Z"/></g>
<g><path style="opacity:0.952" fill="#be2f46" d="M 1459.5,76.5 C 1460.47,77.9621 1460.14,79.2954 1458.5,80.5C 1456.8,80.3398 1455.13,80.5065 1453.5,81C 1454.34,82.0113 1454.67,83.1779 1454.5,84.5C 1453.68,82.8564 1452.35,81.6897 1450.5,81C 1446.51,80.5012 1442.51,80.3345 1438.5,80.5C 1440.29,79.6909 1442.29,79.1909 1444.5,79C 1445.17,78.3333 1445.83,77.6667 1446.5,77C 1450.82,76.501 1455.15,76.3343 1459.5,76.5 Z"/></g>
<g><path style="opacity:1" fill="#a707fe" d="M 1459.5,76.5 C 1467.5,76.5 1475.5,76.5 1483.5,76.5C 1483.5,77.8333 1483.5,79.1667 1483.5,80.5C 1478.17,80.5 1472.83,80.5 1467.5,80.5C 1464.5,80.5 1461.5,80.5 1458.5,80.5C 1460.14,79.2954 1460.47,77.9621 1459.5,76.5 Z"/></g>
<g><path style="opacity:0.926" fill="#c82e3f" d="M 617.5,79.5 C 606.075,91.08 595.075,102.58 584.5,114C 587.553,114.179 590.553,114.679 593.5,115.5C 592.96,116.748 592.293,117.915 591.5,119C 587.833,119.333 584.167,119.667 580.5,120C 570.507,130.077 561.007,140.577 552,151.5C 551.667,151.167 551.333,150.833 551,150.5C 549.513,151.253 549.346,152.086 550.5,153C 543.648,161.075 534.648,164.908 523.5,164.5C 520.833,164.5 518.167,164.5 515.5,164.5C 520.71,163.033 525.71,160.867 530.5,158C 553.536,133.299 576.203,108.299 598.5,83C 604.375,79.834 610.708,78.6673 617.5,79.5 Z"/></g>
<g><path style="opacity:0.2" fill="#a04d70" d="M 655.5,79.5 C 660.833,79.5 666.167,79.5 671.5,79.5C 672.625,80.6522 672.625,81.6522 671.5,82.5C 671.389,81.8826 671.056,81.3826 670.5,81C 665.316,80.8261 660.316,80.3261 655.5,79.5 Z"/></g>
<g><path style="opacity:0.94" fill="#3ff0ec" d="M 671.5,79.5 C 675.5,79.5 679.5,79.5 683.5,79.5C 684.574,80.8846 685.907,82.0513 687.5,83C 685.345,86.8128 683.345,90.6461 681.5,94.5C 675.366,100.804 669.366,107.304 663.5,114C 666.5,114.333 669.5,114.667 672.5,115C 671.167,116.333 669.833,117.667 668.5,119C 664.833,119.333 661.167,119.667 657.5,120C 645.667,133.167 633.833,146.333 622,159.5C 613.011,169.226 603.178,177.892 592.5,185.5C 597.755,189.249 602.588,193.582 607,198.5C 614.264,208.695 620.764,219.361 626.5,230.5C 621.156,230.666 615.823,230.499 610.5,230C 610.5,229 610.5,228 610.5,227C 608.136,225.988 606.802,224.655 606.5,223C 607.451,222.282 607.617,221.449 607,220.5C 605.745,219.789 604.579,218.956 603.5,218C 603.5,217 603.5,216 603.5,215C 601.699,214.683 601.366,214.016 602.5,213C 601.167,211.667 599.833,210.333 598.5,209C 594.176,201.349 588.51,195.016 581.5,190C 580.323,187.281 578.657,185.781 576.5,185.5C 577.865,184.059 579.365,182.726 581,181.5C 581.333,181.833 581.667,182.167 582,182.5C 590.801,174.7 599.301,166.533 607.5,158C 608.849,157.228 609.682,156.061 610,154.5C 618,145.833 626,137.167 634,128.5C 634.333,128.833 634.667,129.167 635,129.5C 637.009,125.843 639.342,122.51 642,119.5C 642.333,119.833 642.667,120.167 643,120.5C 648.387,120.66 652.887,118.826 656.5,115C 653.5,114.667 650.5,114.333 647.5,114C 648.623,112.956 649.956,112.29 651.5,112C 651.167,111.667 650.833,111.333 650.5,111C 651.849,110.228 652.682,109.061 653,107.5C 660,101.167 666.5,94.6666 672.5,88C 672.31,86.1717 671.977,84.3384 671.5,82.5C 672.625,81.6522 672.625,80.6522 671.5,79.5 Z"/></g>
<g><path style="opacity:0.95" fill="#c9253d" d="M 683.5,79.5 C 688.167,79.5 692.833,79.5 697.5,79.5C 694.336,82.2021 692.669,85.7021 692.5,90C 694.915,91.4653 695.915,93.632 695.5,96.5C 696.264,99.0177 697.264,101.351 698.5,103.5C 699.467,106.771 701.134,110.104 703.5,113.5C 707.107,114.489 710.774,114.823 714.5,114.5C 714.421,115.93 714.754,117.264 715.5,118.5C 712.5,119.167 709.5,119.833 706.5,120.5C 707.641,121.425 707.641,122.259 706.5,123C 710.584,131.196 714.584,139.862 718.5,149C 718.043,149.414 717.709,149.914 717.5,150.5C 719.822,151.936 720.489,153.77 719.5,156C 720.5,157 721.5,158 722.5,159C 722.167,159.333 721.833,159.667 721.5,160C 723.387,161.969 724.72,164.302 725.5,167C 725.167,167.333 724.833,167.667 724.5,168C 726.094,170.803 727.761,173.636 729.5,176.5C 729.291,177.086 728.957,177.586 728.5,178C 729.204,179.571 730.537,181.238 732.5,183C 732.167,183.333 731.833,183.667 731.5,184C 734.244,187.731 735.911,191.898 736.5,196.5C 737.264,199.018 738.264,201.351 739.5,203.5C 743.538,211.257 747.204,219.257 750.5,227.5C 753.87,236.58 757.537,245.58 761.5,254.5C 761.254,255.773 761.254,256.94 761.5,258C 763.301,258.317 763.634,258.984 762.5,260C 764.387,261.969 765.72,264.302 766.5,267C 768.916,275.034 772.916,281.867 778.5,287.5C 774.217,288.492 769.884,288.826 765.5,288.5C 763.563,287.069 761.73,285.402 760,283.5C 733.284,220.733 707.117,157.733 681.5,94.5C 683.345,90.6461 685.345,86.8128 687.5,83C 685.907,82.0513 684.574,80.8846 683.5,79.5 Z"/></g>
<g><path style="opacity:0.952" fill="#3af2ef" d="M 734.5,79.5 C 745.27,79.0471 755.937,79.5471 766.5,81C 771.904,91.5313 776.737,102.365 781,113.5C 784.459,114.133 787.959,114.8 791.5,115.5C 792.04,116.748 792.707,117.915 793.5,119C 790.118,119.176 786.785,119.676 783.5,120.5C 798.036,155.448 812.37,190.448 826.5,225.5C 826.389,226.117 826.056,226.617 825.5,227C 826.71,228.039 827.71,229.206 828.5,230.5C 823.489,230.666 818.489,230.499 813.5,230C 812.167,229.333 812.167,228.667 813.5,228C 811.699,227.683 811.366,227.016 812.5,226C 808.93,219.907 806.264,214.24 804.5,209C 804.645,208.228 804.978,207.561 805.5,207C 802.458,203.807 800.124,199.64 798.5,194.5C 798.709,193.914 799.043,193.414 799.5,193C 797.973,191.307 796.64,189.473 795.5,187.5C 795.709,186.914 796.043,186.414 796.5,186C 794.699,185.683 794.366,185.016 795.5,184C 793.395,182.665 792.729,180.998 793.5,179C 791.699,178.683 791.366,178.016 792.5,177C 790.5,173.333 788.5,169.667 786.5,166C 787.517,164.951 787.684,163.784 787,162.5C 784.684,161.478 784.184,159.978 785.5,158C 781.517,154.013 779.517,149.346 779.5,144C 777.973,142.307 776.64,140.473 775.5,138.5C 775.709,137.914 776.043,137.414 776.5,137C 774.699,136.683 774.366,136.016 775.5,135C 772.998,131.666 770.998,127.999 769.5,124C 770.727,122.413 770.394,121.079 768.5,120C 771.553,119.821 774.553,119.321 777.5,118.5C 776.167,117.5 776.167,116.5 777.5,115.5C 773.283,115.024 769.283,114.024 765.5,112.5C 764.269,111.349 764.269,110.183 765.5,109C 761.52,104.961 759.52,100.294 759.5,95C 757.973,93.3067 756.64,91.4734 755.5,89.5C 755.709,88.914 756.043,88.414 756.5,88C 754.702,86.0978 752.869,83.5978 751,80.5C 750.667,80.8333 750.333,81.1667 750,81.5C 744.733,80.8549 739.567,80.1882 734.5,79.5 Z"/></g>
<g><path style="opacity:0.938" fill="#c9293d" d="M 969.5,76.5 C 969.5,77.8333 969.5,79.1667 969.5,80.5C 962.279,79.8861 955.279,80.7195 948.5,83C 947.167,83.6667 947.167,84.3333 948.5,85C 941.053,94.2966 933.72,103.797 926.5,113.5C 929.447,114.321 932.447,114.821 935.5,115C 934.299,115.903 933.465,117.069 933,118.5C 929.515,119.116 925.682,119.616 921.5,120C 919.212,121.773 917.546,123.939 916.5,126.5C 914.973,126.427 913.973,127.094 913.5,128.5C 913.482,131.422 911.816,133.588 908.5,135C 908.833,135.333 909.167,135.667 909.5,136C 905.597,141.383 901.597,146.549 897.5,151.5C 895.973,151.427 894.973,152.094 894.5,153.5C 894.649,154.552 894.483,155.552 894,156.5C 891.356,159.727 888.523,163.394 885.5,167.5C 884.675,168.386 883.675,168.719 882.5,168.5C 881.456,171.165 880.289,173.832 879,176.5C 875.507,180.993 871.673,185.159 867.5,189C 868.345,190.558 867.679,191.558 865.5,192C 865.833,192.333 866.167,192.667 866.5,193C 856.977,205.348 847.311,217.514 837.5,229.5C 836.833,229.833 836.167,230.167 835.5,230.5C 833.167,230.5 830.833,230.5 828.5,230.5C 827.71,229.206 826.71,228.039 825.5,227C 826.056,226.617 826.389,226.117 826.5,225.5C 863.246,177.025 900.246,128.692 937.5,80.5C 938.167,80.5 938.833,80.5 939.5,80.5C 944.74,79.5509 950.073,79.2175 955.5,79.5C 955.5,78.5 955.5,77.5 955.5,76.5C 960.167,76.5 964.833,76.5 969.5,76.5 Z"/></g>
<g><path style="opacity:0.942" fill="#3ff2ec" d="M 1021.5,80.5 C 1022.34,82.3792 1022.67,84.3792 1022.5,86.5C 1022.5,86.8333 1022.5,87.1667 1022.5,87.5C 1016.08,96.4327 1009.41,105.266 1002.5,114C 1005.55,114.179 1008.55,114.679 1011.5,115.5C 1010.69,116.814 1009.69,117.981 1008.5,119C 1005.17,119.333 1001.83,119.667 998.5,120C 970.232,156.427 942.565,193.261 915.5,230.5C 910.156,230.666 904.823,230.499 899.5,230C 902.521,225.982 905.854,222.316 909.5,219C 909.041,217.057 910.041,215.724 912.5,215C 912.041,213.057 913.041,211.724 915.5,211C 915.041,209.057 916.041,207.724 918.5,207C 918.041,205.057 919.041,203.724 921.5,203C 921.041,201.057 922.041,199.724 924.5,199C 924.041,197.057 925.041,195.724 927.5,195C 927.041,193.057 928.041,191.724 930.5,191C 930.041,189.057 931.041,187.724 933.5,187C 933.041,185.057 934.041,183.724 936.5,183C 936.041,181.057 937.041,179.724 939.5,179C 939.041,177.057 940.041,175.724 942.5,175C 942.041,173.057 943.041,171.724 945.5,171C 945.041,169.057 946.041,167.724 948.5,167C 948.041,165.057 949.041,163.724 951.5,163C 950.742,161.636 951.242,160.469 953,159.5C 954.666,160.34 954.833,159.84 953.5,158C 954.333,157.167 955.167,156.333 956,155.5C 957.666,156.34 957.833,155.84 956.5,154C 957.333,153.167 958.167,152.333 959,151.5C 960.666,152.34 960.833,151.84 959.5,150C 960.333,149.167 961.167,148.333 962,147.5C 963.666,148.34 963.833,147.84 962.5,146C 963.333,145.167 964.167,144.333 965,143.5C 966.666,144.34 966.833,143.84 965.5,142C 966.333,141.167 967.167,140.333 968,139.5C 969.666,140.34 969.833,139.84 968.5,138C 969.333,137.167 970.167,136.333 971,135.5C 972.666,136.34 972.833,135.84 971.5,134C 972.333,133.167 973.167,132.333 974,131.5C 975.666,132.34 975.833,131.84 974.5,130C 975.333,129.167 976.167,128.333 977,127.5C 978.666,128.34 978.833,127.84 977.5,126C 978.333,125.167 979.167,124.333 980,123.5C 981.666,124.34 981.833,123.84 980.5,122C 981.469,120.242 982.636,119.742 984,120.5C 987.411,119.707 990.911,119.207 994.5,119C 993.742,117.636 994.242,116.469 996,115.5C 996.654,116.696 997.154,116.696 997.5,115.5C 993.878,114.675 990.211,114.175 986.5,114C 987.333,113.167 988.167,112.333 989,111.5C 990.666,112.34 990.833,111.84 989.5,110C 990.333,109.167 991.167,108.333 992,107.5C 993.666,108.34 993.833,107.84 992.5,106C 993.759,105.077 995.092,104.243 996.5,103.5C 996.291,102.914 995.957,102.414 995.5,102C 996.759,101.077 998.092,100.243 999.5,99.5C 999.291,98.914 998.957,98.414 998.5,98C 999.759,97.0766 1001.09,96.2432 1002.5,95.5C 1002.29,94.914 1001.96,94.414 1001.5,94C 1002.76,93.0766 1004.09,92.2432 1005.5,91.5C 1005.29,90.914 1004.96,90.414 1004.5,90C 1008.78,87.826 1009.12,84.826 1005.5,81C 1010.82,80.5006 1016.16,80.334 1021.5,80.5 Z"/></g>
<g><path style="opacity:0.959" fill="#c9243c" d="M 1023.5,80.5 C 1028.51,80.3341 1033.51,80.5007 1038.5,81C 1037.95,83.3668 1036.95,85.5334 1035.5,87.5C 1035.99,88.4461 1036.32,89.4461 1036.5,90.5C 1034.78,98.4443 1033.44,106.444 1032.5,114.5C 1035.85,114.335 1039.18,114.502 1042.5,115C 1040.89,116.049 1040.23,117.549 1040.5,119.5C 1037.17,119.5 1033.83,119.5 1030.5,119.5C 1029.05,128.458 1027.72,137.458 1026.5,146.5C 1026.03,148.246 1025.36,149.913 1024.5,151.5C 1024.68,152.554 1025.01,153.554 1025.5,154.5C 1024.74,158.961 1023.41,163.128 1021.5,167C 1022.08,167.893 1022.41,168.893 1022.5,170C 1020.58,179.863 1018.91,189.53 1017.5,199C 1011.54,229.163 1006.21,258.996 1001.5,288.5C 996.833,288.5 992.167,288.5 987.5,288.5C 999.275,221.518 1010.94,154.518 1022.5,87.5C 1022.5,87.1667 1022.5,86.8333 1022.5,86.5C 1023.46,84.7354 1023.79,82.7354 1023.5,80.5 Z"/></g>
<g><path style="opacity:0.96" fill="#6aeed5" d="M 1113.5,80.5 C 1111.29,91.7866 1109.29,103.12 1107.5,114.5C 1110.9,114.18 1114.23,114.513 1117.5,115.5C 1116.75,116.736 1116.42,118.07 1116.5,119.5C 1113.17,119.5 1109.83,119.5 1106.5,119.5C 1105.7,123.476 1105.04,127.476 1104.5,131.5C 1157.5,131.5 1210.5,131.5 1263.5,131.5C 1206,132.665 1148.33,132.832 1090.5,132C 1089.86,128.543 1090.52,125.21 1092.5,122C 1092.17,121.667 1091.83,121.333 1091.5,121C 1095.02,119.904 1098.69,119.071 1102.5,118.5C 1101.29,117.28 1101.29,116.113 1102.5,115C 1099.12,114.824 1095.78,114.324 1092.5,113.5C 1093.07,110.492 1094.07,107.659 1095.5,105C 1094.45,99.9593 1095.12,94.7927 1097.5,89.5C 1097.29,88.914 1096.96,88.414 1096.5,88C 1097.57,87.2613 1098.24,86.2613 1098.5,85C 1097.43,83.5838 1097.43,82.2504 1098.5,81C 1103.49,80.5007 1108.49,80.3341 1113.5,80.5 Z"/></g>
<g><path style="opacity:0.958" fill="#30f5f1" d="M 1361.5,80.5 C 1349.53,151.684 1336.69,222.684 1323,293.5C 1322.1,294.701 1320.93,295.535 1319.5,296C 1314.51,296.499 1309.51,296.666 1304.5,296.5C 1305.8,295.755 1307.13,294.255 1308.5,292C 1299.67,290.923 1300,289.59 1309.5,288C 1310.51,285.676 1311.51,283.342 1312.5,281C 1311.66,276.67 1312.33,272.504 1314.5,268.5C 1314.17,267.833 1313.83,267.167 1313.5,266.5C 1315.81,265.029 1316.15,263.196 1314.5,261C 1315.68,256.923 1317.02,252.923 1318.5,249C 1318.63,247.455 1318.3,245.788 1317.5,244C 1318.36,238.962 1319.69,234.129 1321.5,229.5C 1321.07,228.707 1320.74,227.873 1320.5,227C 1321.88,221.868 1323.21,217.034 1324.5,212.5C 1323.75,207.394 1324.75,202.561 1327.5,198C 1326.37,192.289 1327.37,186.622 1330.5,181C 1329.37,175.289 1330.37,169.622 1333.5,164C 1332.37,158.289 1333.37,152.622 1336.5,147C 1336.59,145.284 1336.26,143.451 1335.5,141.5C 1336.65,137.57 1337.98,133.736 1339.5,130C 1339.59,128.284 1339.26,126.451 1338.5,124.5C 1338.89,120.15 1341.22,118.483 1345.5,119.5C 1345.5,117.833 1345.5,116.167 1345.5,114.5C 1344.13,114.657 1342.79,114.49 1341.5,114C 1342.33,112.107 1342.33,109.941 1341.5,107.5C 1342.15,103.417 1343.48,99.5833 1345.5,96C 1344.46,91.3544 1344.96,86.5211 1347,81.5C 1351.74,80.5308 1356.57,80.1975 1361.5,80.5 Z"/></g>
<g><path style="opacity:0.956" fill="#ca253c" d="M 1402.5,81.5 C 1401.74,82.2679 1400.74,82.7679 1399.5,83C 1399.85,85.0545 1399.18,87.0545 1397.5,89C 1396.64,90.8477 1396.64,93.0144 1397.5,95.5C 1396.74,99.9612 1395.41,104.128 1393.5,108C 1394.08,108.893 1394.41,109.893 1394.5,111C 1385.37,160.347 1376.7,209.181 1368.5,257.5C 1366.78,259.78 1366.11,262.447 1366.5,265.5C 1366.69,269.007 1366.03,272.34 1364.5,275.5C 1364.71,276.086 1365.04,276.586 1365.5,277C 1364.54,281.456 1363.21,285.789 1361.5,290C 1362.83,291.667 1364.17,293.333 1365.5,295C 1367.38,295.198 1369.05,295.698 1370.5,296.5C 1364.16,296.666 1357.82,296.5 1351.5,296C 1349.93,294.316 1348.93,292.316 1348.5,290C 1360.46,223.195 1372.29,156.362 1384,89.5C 1384.45,85.9248 1385.95,82.9248 1388.5,80.5C 1389.83,80.5 1391.17,80.5 1392.5,80.5C 1393.12,80.3893 1393.62,80.056 1394,79.5C 1396.94,80.1281 1399.77,80.7948 1402.5,81.5 Z"/></g>
<g><path style="opacity:1" fill="#a706fe" d="M 1434.5,79.5 C 1435.96,79.4326 1437.29,79.7659 1438.5,80.5C 1442.51,80.3345 1446.51,80.5012 1450.5,81C 1452.35,81.6897 1453.68,82.8564 1454.5,84.5C 1453.79,87.2371 1453.79,89.9037 1454.5,92.5C 1452.89,97.0187 1451.56,101.685 1450.5,106.5C 1450.93,107.293 1451.26,108.127 1451.5,109C 1449.75,113.82 1448.41,118.82 1447.5,124C 1449,126.006 1448.67,127.672 1446.5,129C 1446.96,129.414 1447.29,129.914 1447.5,130.5C 1445.51,134.735 1444.85,139.069 1445.5,143.5C 1443.86,144.705 1443.53,146.038 1444.5,147.5C 1442.58,151.585 1441.91,155.752 1442.5,160C 1442.24,161.261 1441.57,162.261 1440.5,163C 1440.96,163.414 1441.29,163.914 1441.5,164.5C 1439.12,169.793 1438.45,174.959 1439.5,180C 1437.98,183.736 1436.65,187.57 1435.5,191.5C 1436.26,193.451 1436.59,195.284 1436.5,197C 1434.98,200.736 1433.65,204.57 1432.5,208.5C 1433.26,210.451 1433.59,212.284 1433.5,214C 1432.14,215.584 1431.47,217.418 1431.5,219.5C 1430.72,221.343 1430.05,223.343 1429.5,225.5C 1429.62,226.107 1429.96,226.44 1430.5,226.5C 1429.5,231.588 1428.16,236.922 1426.5,242.5C 1427.26,244.451 1427.59,246.284 1427.5,248C 1424.37,253.622 1423.37,259.289 1424.5,265C 1422.42,268.729 1421.09,272.729 1420.5,277C 1420.48,279.679 1420.48,282.346 1420.5,285C 1418.73,287.269 1418.06,289.602 1418.5,292C 1416.29,293.047 1414.63,294.547 1413.5,296.5C 1399.17,296.5 1384.83,296.5 1370.5,296.5C 1369.05,295.698 1367.38,295.198 1365.5,295C 1364.17,293.333 1362.83,291.667 1361.5,290C 1363.21,285.789 1364.54,281.456 1365.5,277C 1365.04,276.586 1364.71,276.086 1364.5,275.5C 1366.03,272.34 1366.69,269.007 1366.5,265.5C 1367.53,263.039 1368.2,260.373 1368.5,257.5C 1376.7,209.181 1385.37,160.347 1394.5,111C 1394.41,109.893 1394.08,108.893 1393.5,108C 1395.41,104.128 1396.74,99.9612 1397.5,95.5C 1396.64,93.0144 1396.64,90.8477 1397.5,89C 1399.18,87.0545 1399.85,85.0545 1399.5,83C 1400.74,82.7679 1401.74,82.2679 1402.5,81.5C 1413.3,80.8771 1423.96,80.2105 1434.5,79.5 Z"/></g>
<g><path style="opacity:0.959" fill="#2ff5f1" d="M 1458.5,80.5 C 1461.5,80.5 1464.5,80.5 1467.5,80.5C 1468.46,82.5447 1469.13,84.7114 1469.5,87C 1457.59,155.973 1445.09,224.807 1432,293.5C 1431.1,294.701 1429.93,295.535 1428.5,296C 1423.51,296.499 1418.51,296.666 1413.5,296.5C 1414.63,294.547 1416.29,293.047 1418.5,292C 1418.06,289.602 1418.73,287.269 1420.5,285C 1420.48,282.346 1420.48,279.679 1420.5,277C 1421.09,272.729 1422.42,268.729 1424.5,265C 1423.37,259.289 1424.37,253.622 1427.5,248C 1427.59,246.284 1427.26,244.451 1426.5,242.5C 1428.16,236.922 1429.5,231.588 1430.5,226.5C 1431.37,224.283 1431.7,221.95 1431.5,219.5C 1431.47,217.418 1432.14,215.584 1433.5,214C 1433.59,212.284 1433.26,210.451 1432.5,208.5C 1433.65,204.57 1434.98,200.736 1436.5,197C 1436.59,195.284 1436.26,193.451 1435.5,191.5C 1436.65,187.57 1437.98,183.736 1439.5,180C 1438.45,174.959 1439.12,169.793 1441.5,164.5C 1441.29,163.914 1440.96,163.414 1440.5,163C 1441.57,162.261 1442.24,161.261 1442.5,160C 1441.91,155.752 1442.58,151.585 1444.5,147.5C 1443.53,146.038 1443.86,144.705 1445.5,143.5C 1444.85,139.069 1445.51,134.735 1447.5,130.5C 1447.29,129.914 1446.96,129.414 1446.5,129C 1448.67,127.672 1449,126.006 1447.5,124C 1448.41,118.82 1449.75,113.82 1451.5,109C 1451.26,108.127 1450.93,107.293 1450.5,106.5C 1451.56,101.685 1452.89,97.0187 1454.5,92.5C 1453.79,89.9037 1453.79,87.2371 1454.5,84.5C 1454.67,83.1779 1454.34,82.0113 1453.5,81C 1455.13,80.5065 1456.8,80.3398 1458.5,80.5 Z"/></g>
<g><path style="opacity:1" fill="#8bb2a0" d="M 695.5,96.5 C 697.834,98.1757 698.834,100.509 698.5,103.5C 697.264,101.351 696.264,99.0177 695.5,96.5 Z"/></g>
<g><path style="opacity:1" fill="#5ecc78" d="M 916.5,126.5 C 916.027,127.906 915.027,128.573 913.5,128.5C 913.973,127.094 914.973,126.427 916.5,126.5 Z"/></g>
<g><path style="opacity:0.945" fill="#39f3ef" d="M 279.5,132.5 C 299.004,130.292 316.671,134.792 332.5,146C 342.029,156.414 346.695,168.747 346.5,183C 344.762,198.929 342.428,214.763 339.5,230.5C 334.786,230.827 330.12,230.493 325.5,229.5C 324.67,225.477 325.336,221.644 327.5,218C 326.978,217.439 326.645,216.772 326.5,216C 328.406,214.213 328.739,212.213 327.5,210C 329.282,204.604 330.616,199.104 331.5,193.5C 331.87,185.148 331.204,176.815 329.5,168.5C 329.709,167.914 330.043,167.414 330.5,167C 328.559,165.184 327.892,163.184 328.5,161C 327.167,159.333 325.833,157.667 324.5,156C 324.833,155.667 325.167,155.333 325.5,155C 322.684,151.817 319.518,148.317 316,144.5C 315.667,144.833 315.333,145.167 315,145.5C 312.441,142.487 309.607,140.654 306.5,140C 307.34,138.334 306.84,138.167 305,139.5C 303.893,136.508 302.226,135.841 300,137.5C 293.157,135.45 286.323,133.784 279.5,132.5 Z"/></g>
<g><path style="opacity:1" fill="#64c146" d="M 897.5,151.5 C 897.027,152.906 896.027,153.573 894.5,153.5C 894.973,152.094 895.973,151.427 897.5,151.5 Z"/></g>
<g><path style="opacity:1" fill="#8de95c" d="M 46.5,154.5 C 47.6737,155.514 48.3404,156.847 48.5,158.5C 46.8958,157.713 46.2291,156.38 46.5,154.5 Z"/></g>
<g><path style="opacity:1" fill="#d6cac1" d="M 438.5,164.5 C 442.97,165.486 447.637,165.819 452.5,165.5C 473.51,165.625 494.51,165.291 515.5,164.5C 518.167,164.5 520.833,164.5 523.5,164.5C 520.023,165.323 516.356,165.823 512.5,166C 487.5,166.667 462.5,166.667 437.5,166C 436.288,164.893 436.621,164.393 438.5,164.5 Z"/></g>
<g><path style="opacity:0.427" fill="#b5c2a5" d="M 113.5,181.5 C 161.694,180.179 210.027,180.179 258.5,181.5C 253.043,181.737 247.376,181.737 241.5,181.5C 198.833,181.5 156.167,181.5 113.5,181.5 Z"/></g>
<g><path style="opacity:0.943" fill="#ba4c3a" d="M 241.5,181.5 C 247.376,181.737 253.043,181.737 258.5,181.5C 261.342,182.172 263.842,183.506 266,185.5C 266.249,188.177 267.249,190.51 269,192.5C 269.573,196.686 269.406,200.853 268.5,205C 267.219,210.891 265.885,216.725 264.5,222.5C 264.709,223.086 265.043,223.586 265.5,224C 263.849,228.97 261.183,233.303 257.5,237C 254.318,237.692 251.151,239.192 248,241.5C 178.868,242.815 109.702,242.815 40.5,241.5C 105.865,241.979 171.198,241.479 236.5,240C 243,237.5 247.5,233 250,226.5C 252.533,216.805 254.366,206.972 255.5,197C 255.144,187.815 250.477,182.649 241.5,181.5 Z"/></g>
<g><path style="opacity:0.137" fill="#626496" d="M 1267.5,182.5 C 1263.37,183.485 1259.03,183.818 1254.5,183.5C 1201.5,183.5 1148.5,183.5 1095.5,183.5C 1090.11,183.267 1084.77,183.6 1079.5,184.5C 1079.61,183.883 1079.94,183.383 1080.5,183C 1142.83,182.5 1205.17,182.333 1267.5,182.5 Z"/></g>
<g><path style="opacity:0.959" fill="#33f4f0" d="M 1095.5,183.5 C 1089.06,218.456 1082.73,253.456 1076.5,288.5C 1076.44,289.365 1076.1,290.365 1075.5,291.5C 1074.98,293.708 1073.64,295.208 1071.5,296C 1064.84,296.5 1058.17,296.666 1051.5,296.5C 1056.19,295.976 1059.86,293.643 1062.5,289.5C 1061.67,285.477 1062.34,281.644 1064.5,278C 1063.07,276.286 1063.41,274.953 1065.5,274C 1064.76,270.502 1064.76,267.169 1065.5,264C 1066.89,261.848 1067.89,259.515 1068.5,257C 1068.19,251.221 1069.19,245.554 1071.5,240C 1070.76,236.467 1070.76,233.134 1071.5,230C 1072.71,227.283 1073.71,224.616 1074.5,222C 1074.17,221 1073.83,220 1073.5,219C 1074.4,214.37 1075.73,209.87 1077.5,205.5C 1076.54,201.118 1077.21,196.951 1079.5,193C 1078.23,190.956 1078.56,189.122 1080.5,187.5C 1079.87,186.583 1079.54,185.583 1079.5,184.5C 1084.77,183.6 1090.11,183.267 1095.5,183.5 Z"/></g>
<g><path style="opacity:0.958" fill="#c9243c" d="M 1267.5,182.5 C 1268.28,185.931 1267.61,189.264 1265.5,192.5C 1265.93,193.293 1266.26,194.127 1266.5,195C 1264.15,206.121 1262.15,217.121 1260.5,228C 1260.16,229.365 1259.49,230.532 1258.5,231.5C 1258.99,232.446 1259.32,233.446 1259.5,234.5C 1257.32,244.768 1255.65,254.935 1254.5,265C 1253.69,269.257 1252.36,273.257 1250.5,277C 1251.42,280.459 1251.26,283.959 1250,287.5C 1247.28,288.444 1244.45,288.777 1241.5,288.5C 1241.5,289.5 1241.5,290.5 1241.5,291.5C 1244.19,291.336 1246.85,291.503 1249.5,292C 1251.65,293.192 1252.32,294.692 1251.5,296.5C 1247.15,296.666 1242.82,296.499 1238.5,296C 1236.09,291.872 1232.42,290.372 1227.5,291.5C 1227.5,290.5 1227.5,289.5 1227.5,288.5C 1230.45,288.777 1233.28,288.444 1236,287.5C 1242.07,252.77 1248.23,218.103 1254.5,183.5C 1259.03,183.818 1263.37,183.485 1267.5,182.5 Z"/></g>
<g><path style="opacity:1" fill="#8bb2a0" d="M 736.5,196.5 C 738.834,198.176 739.834,200.509 739.5,203.5C 738.264,201.351 737.264,199.018 736.5,196.5 Z"/></g>
<g><path style="opacity:0.365" fill="#cc8d87" d="M 500.5,208.5 C 481.833,208.5 463.167,208.5 444.5,208.5C 439.786,208.173 435.12,208.507 430.5,209.5C 429.691,211.071 429.357,212.738 429.5,214.5C 428.246,212.643 428.246,210.643 429.5,208.5C 453.33,207.171 476.997,207.171 500.5,208.5 Z"/></g>
<g><path style="opacity:0.962" fill="#25f7f3" d="M 444.5,208.5 C 443.039,215.803 441.706,223.136 440.5,230.5C 435.5,230.5 430.5,230.5 425.5,230.5C 425.947,224.926 427.281,219.593 429.5,214.5C 429.357,212.738 429.691,211.071 430.5,209.5C 435.12,208.507 439.786,208.173 444.5,208.5 Z"/></g>
<g><path style="opacity:0.937" fill="#c92e3e" d="M 588.5,296.5 C 583.156,296.666 577.823,296.499 572.5,296C 570.313,294.975 568.646,293.475 567.5,291.5C 567.414,290.504 567.748,289.671 568.5,289C 567.552,288.517 566.552,288.351 565.5,288.5C 553.198,265.232 540.365,242.232 527,219.5C 520.579,212.646 512.746,208.979 503.5,208.5C 509.539,207.506 515.539,207.506 521.5,208.5C 528.433,209.468 534.433,212.301 539.5,217C 539.167,217.333 538.833,217.667 538.5,218C 543.948,221.712 547.281,226.879 548.5,233.5C 551.955,236.74 554.122,240.74 555,245.5C 555.333,245.167 555.667,244.833 556,244.5C 556.748,246.332 557.748,247.999 559,249.5C 562.613,256.33 565.947,263.33 569,270.5C 569.333,270.167 569.667,269.833 570,269.5C 570.748,271.332 571.748,272.999 573,274.5C 576.009,281.606 579.842,288.273 584.5,294.5C 585.949,295.172 587.282,295.839 588.5,296.5 Z"/></g>
<g><path style="opacity:1" fill="#c68145" d="M 1431.5,219.5 C 1431.7,221.95 1431.37,224.283 1430.5,226.5C 1429.96,226.44 1429.62,226.107 1429.5,225.5C 1430.05,223.343 1430.72,221.343 1431.5,219.5 Z"/></g>
<g><path style="opacity:1" fill="#c83e44" d="M 269.5,230.5 C 274.511,230.334 279.511,230.501 284.5,231C 282.457,232.708 280.79,234.708 279.5,237C 273.947,238.57 268.281,238.903 262.5,238C 266.361,236.774 268.694,234.274 269.5,230.5 Z"/></g>
<g><path style="opacity:1" fill="#40f0e9" d="M 346.5,230.5 C 349.5,230.5 352.5,230.5 355.5,230.5C 357.604,230.201 359.604,230.534 361.5,231.5C 359.829,233.51 359.162,235.843 359.5,238.5C 357.5,238.5 355.5,238.5 353.5,238.5C 350.5,238.5 347.5,238.5 344.5,238.5C 344.511,236.983 345.177,235.816 346.5,235C 345.272,233.51 345.272,232.01 346.5,230.5 Z"/></g>
<g><path style="opacity:1" fill="#ca323f" d="M 377.5,230.5 C 382.214,230.173 386.88,230.507 391.5,231.5C 390.811,233.444 390.311,235.444 390,237.5C 385.252,238.635 380.419,238.802 375.5,238C 376.578,237.326 377.245,236.326 377.5,235C 376.797,233.307 376.797,231.807 377.5,230.5 Z"/></g>
<g><path style="opacity:0.954" fill="#28f6f3" d="M 447.5,230.5 C 452.5,230.5 457.5,230.5 462.5,230.5C 461.908,233.127 461.575,235.794 461.5,238.5C 456.5,238.5 451.5,238.5 446.5,238.5C 447.535,236.795 447.535,235.128 446.5,233.5C 448.435,232.787 448.768,231.787 447.5,230.5 Z"/></g>
<g><path style="opacity:1" fill="#c93e42" d="M 556.5,230.5 C 564.561,228.775 570.561,231.275 574.5,238C 569.845,238.499 565.179,238.666 560.5,238.5C 558.918,236.685 557.584,234.018 556.5,230.5 Z"/></g>
<g><path style="opacity:0.955" fill="#43f1ee" d="M 634.5,230.5 C 639.179,230.334 643.845,230.501 648.5,231C 650.032,233.034 651.365,235.201 652.5,237.5C 647.544,238.494 642.544,238.827 637.5,238.5C 637.193,236.217 635.859,234.05 633.5,232C 634.056,231.617 634.389,231.117 634.5,230.5 Z"/></g>
<g><path style="opacity:1" fill="#c83441" d="M 759.5,230.5 C 764.179,230.334 768.845,230.501 773.5,231C 774.399,233.192 775.399,235.358 776.5,237.5C 772.167,238.833 767.833,238.833 763.5,237.5C 761.711,235.39 760.378,233.056 759.5,230.5 Z"/></g>
<g><path style="opacity:1" fill="#41f0eb" d="M 837.5,229.5 C 841.5,230.167 845.5,230.833 849.5,231.5C 850.429,232.315 851.429,233.148 852.5,234C 851.483,235.049 851.316,236.216 852,237.5C 852.69,236.262 853.19,236.262 853.5,237.5C 848.684,238.65 843.684,238.816 838.5,238C 837.167,237 837.167,236 838.5,235C 836.699,234.683 836.366,234.016 837.5,233C 836.244,232.583 835.577,231.75 835.5,230.5C 836.167,230.167 836.833,229.833 837.5,229.5 Z"/></g>
<g><path style="opacity:1" fill="#c5454b" d="M 853.5,237.5 C 853.19,236.262 852.69,236.262 852,237.5C 851.316,236.216 851.483,235.049 852.5,234C 851.429,233.148 850.429,232.315 849.5,231.5C 852.743,230.42 856.076,230.253 859.5,231C 856.567,232.773 854.567,234.94 853.5,237.5 Z"/></g>
<g><path style="opacity:0.95" fill="#3af0e9" d="M 921.5,230.5 C 926.511,230.334 931.511,230.501 936.5,231C 934.833,233.333 933.167,235.667 931.5,238C 926.177,238.499 920.844,238.666 915.5,238.5C 917.5,235.833 919.5,233.167 921.5,230.5 Z"/></g>
<g><path style="opacity:1" fill="#c93541" d="M 1019.5,230.5 C 1023.83,230.5 1028.17,230.5 1032.5,230.5C 1032.5,233.167 1032.5,235.833 1032.5,238.5C 1027.83,238.5 1023.17,238.5 1018.5,238.5C 1018.83,235.833 1019.17,233.167 1019.5,230.5 Z"/></g>
<g><path style="opacity:0.928" fill="#3ef0eb" d="M 337.5,238.5 C 325.628,278.677 298.628,298.01 256.5,296.5C 257.261,295.609 258.261,294.942 259.5,294.5C 261.101,295.165 262.601,295.499 264,295.5C 264.605,293.519 265.605,293.185 267,294.5C 269.022,293.214 271.189,292.214 273.5,291.5C 274.842,292.902 275.676,292.569 276,290.5C 279.357,290.031 282.691,288.698 286,286.5C 288.675,285.623 291.342,283.956 294,281.5C 295.84,282.833 296.34,282.666 295.5,281C 297.787,278.038 300.62,275.871 304,274.5C 304.333,273.5 304.667,272.5 305,271.5C 308.659,267.173 312.326,262.84 316,258.5C 317.368,257.007 317.535,255.507 316.5,254C 317.5,253 318.5,252 319.5,251C 319.167,250.667 318.833,250.333 318.5,250C 319.909,246.467 321.409,242.967 323,239.5C 327.737,238.531 332.57,238.197 337.5,238.5 Z"/></g>
<g><path style="opacity:0.959" fill="#2ff5f1" d="M 438.5,238.5 C 436.089,256.63 432.923,274.63 429,292.5C 427.786,294.049 426.286,295.215 424.5,296C 418.175,296.5 411.842,296.666 405.5,296.5C 406.919,295.549 408.585,295.216 410.5,295.5C 414.413,294.323 416.079,291.989 415.5,288.5C 416.22,282.385 417.553,276.219 419.5,270C 419.083,265.79 419.75,261.623 421.5,257.5C 421.291,256.914 420.957,256.414 420.5,256C 421.574,255.261 422.241,254.261 422.5,253C 420.877,251.124 421.21,249.79 423.5,249C 422.966,245.602 422.966,242.102 423.5,238.5C 428.5,238.5 433.5,238.5 438.5,238.5 Z"/></g>
<g><path style="opacity:0.948" fill="#3ff2ee" d="M 631.5,238.5 C 640.821,255.139 650.155,271.806 659.5,288.5C 654.125,288.828 648.792,288.495 643.5,287.5C 642.359,286.575 642.359,285.741 643.5,285C 641.699,284.683 641.366,284.016 642.5,283C 640.699,282.683 640.366,282.016 641.5,281C 638.981,278.475 636.814,275.642 635,272.5C 628.709,260.686 622.209,249.519 615.5,239C 620.823,238.501 626.156,238.334 631.5,238.5 Z"/></g>
<g><path style="opacity:1" fill="#69d5c5" d="M 816.5,239.5 C 821.316,238.35 826.316,238.184 831.5,239C 829.574,242.259 827.074,244.759 824,246.5C 819.909,246.073 818.242,244.073 819,240.5C 818.667,240.833 818.333,241.167 818,241.5C 817.722,240.584 817.222,239.918 816.5,239.5 Z"/></g>
<g><path style="opacity:0.937" fill="#43f0ea" d="M 908.5,238.5 C 877.919,279.982 847.086,321.316 816,362.5C 802.153,375.944 785.653,383.277 766.5,384.5C 759.5,384.5 752.5,384.5 745.5,384.5C 752.623,384.443 759.79,383.11 767,380.5C 767.772,380.645 768.439,380.978 769,381.5C 774.85,379.292 780.516,376.625 786,373.5C 787.073,374.28 788.24,374.113 789.5,373C 788.167,372.333 788.167,371.667 789.5,371C 790.931,370.535 792.097,369.701 793,368.5C 793.333,368.833 793.667,369.167 794,369.5C 797.167,365 801,361.167 805.5,358C 805.167,357.667 804.833,357.333 804.5,357C 824.245,330.406 844.245,303.906 864.5,277.5C 864.435,277.938 864.601,278.272 865,278.5C 866.039,277.756 866.539,276.756 866.5,275.5C 874.872,262.948 883.872,250.781 893.5,239C 898.489,238.501 903.489,238.334 908.5,238.5 Z"/></g>
<g><path style="opacity:0.949" fill="#c8253d" d="M 27.5,241.5 C 25.2314,242.976 22.8981,244.476 20.5,246C 20.8333,246.333 21.1667,246.667 21.5,247C 19.9491,251.166 18.9491,255.5 18.5,260C 18.2451,261.326 17.5784,262.326 16.5,263C 16.4306,272.551 15.0973,282.051 12.5,291.5C 13.9599,293.972 15.9599,295.639 18.5,296.5C 13.1563,296.666 7.82294,296.499 2.5,296C 1.30943,295.302 0.309426,294.469 -0.5,293.5C -0.5,290.5 -0.5,287.5 -0.5,284.5C 1.97062,273.363 4.13728,262.029 6,250.5C 6.61684,246.413 8.7835,243.58 12.5,242C 17.4889,241.501 22.4889,241.334 27.5,241.5 Z"/></g>
<g><path style="opacity:1" fill="#778841" d="M 1368.5,257.5 C 1368.2,260.373 1367.53,263.039 1366.5,265.5C 1366.11,262.447 1366.78,259.78 1368.5,257.5 Z"/></g>
<g><path style="opacity:1" fill="#f55242" d="M 866.5,275.5 C 866.539,276.756 866.039,277.756 865,278.5C 864.601,278.272 864.435,277.938 864.5,277.5C 864.833,276.5 865.5,275.833 866.5,275.5 Z"/></g>
<g><path style="opacity:0.969" fill="#ce2d40" d="M 491.5,288.5 C 492.11,289.391 492.443,290.391 492.5,291.5C 487.786,291.827 483.12,291.493 478.5,290.5C 478.291,289.914 477.957,289.414 477.5,289C 482.155,288.501 486.821,288.334 491.5,288.5 Z"/></g>
<g><path style="opacity:1" fill="#a804fe" d="M 491.5,288.5 C 512.167,288.5 532.833,288.5 553.5,288.5C 554.11,289.391 554.443,290.391 554.5,291.5C 533.833,291.5 513.167,291.5 492.5,291.5C 492.443,290.391 492.11,289.391 491.5,288.5 Z"/></g>
<g><path style="opacity:1" fill="#33f8f2" d="M 553.5,288.5 C 557.5,288.5 561.5,288.5 565.5,288.5C 566.552,288.351 567.552,288.517 568.5,289C 567.748,289.671 567.414,290.504 567.5,291.5C 563.167,291.5 558.833,291.5 554.5,291.5C 554.443,290.391 554.11,289.391 553.5,288.5 Z"/></g>
<g><path style="opacity:1" fill="#c73744" d="M 585.5,288.5 C 589.833,288.5 594.167,288.5 598.5,288.5C 598.5,289.5 598.5,290.5 598.5,291.5C 593.786,291.827 589.12,291.493 584.5,290.5C 584.863,289.817 585.196,289.15 585.5,288.5 Z"/></g>
<g><path style="opacity:1" fill="#55e5de" d="M 807.5,289.5 C 812.687,288.581 817.854,288.247 823,288.5C 823.692,289.025 824.192,289.692 824.5,290.5C 818.585,292.06 812.918,291.727 807.5,289.5 Z"/></g>
<g><path style="opacity:0.95" fill="#ca233a" d="M 958.5,288.5 C 959.11,289.391 959.443,290.391 959.5,291.5C 954.821,291.666 950.155,291.499 945.5,291C 945.043,290.586 944.709,290.086 944.5,289.5C 949.12,288.507 953.786,288.173 958.5,288.5 Z"/></g>
<g><path style="opacity:1" fill="#22f9ee" d="M 1021.5,289.5 C 1023.64,288.837 1025.97,288.503 1028.5,288.5C 1039.17,289.5 1039.17,290.5 1028.5,291.5C 1026.17,291.333 1023.83,291.167 1021.5,291C 1022.74,290.31 1022.74,289.81 1021.5,289.5 Z"/></g>
<g><path style="opacity:1" fill="#c6243d" d="M 1076.5,288.5 C 1080.5,288.5 1084.5,288.5 1088.5,288.5C 1089.83,289.5 1089.83,290.5 1088.5,291.5C 1084.17,291.5 1079.83,291.5 1075.5,291.5C 1076.1,290.365 1076.44,289.365 1076.5,288.5 Z"/></g>
<g><path style="opacity:1" fill="#a705fe" d="M 1088.5,288.5 C 1109.5,288.5 1130.5,288.5 1151.5,288.5C 1150.83,289.5 1150.17,290.5 1149.5,291.5C 1129.17,291.5 1108.83,291.5 1088.5,291.5C 1089.83,290.5 1089.83,289.5 1088.5,288.5 Z"/></g>
<g><path style="opacity:0.948" fill="#48f0e8" d="M 1151.5,288.5 C 1156.54,288.173 1161.54,288.506 1166.5,289.5C 1166.33,289.833 1166.17,290.167 1166,290.5C 1160.59,291.473 1155.09,291.807 1149.5,291.5C 1150.17,290.5 1150.83,289.5 1151.5,288.5 Z"/></g>
<g><path style="opacity:1" fill="#c77961" d="M 415.5,288.5 C 416.079,291.989 414.413,294.323 410.5,295.5C 412.616,293.4 414.283,291.067 415.5,288.5 Z"/></g>
<g><path style="opacity:0.921" fill="#37ebe9" d="M 659.5,291.5 C 658.977,293.708 657.644,295.208 655.5,296C 650.511,296.499 645.511,296.666 640.5,296.5C 641.343,294.827 642.676,293.66 644.5,293C 644.167,292.667 643.833,292.333 643.5,292C 648.823,291.501 654.156,291.334 659.5,291.5 Z"/></g>
<g><path style="opacity:0.926" fill="#c82e3f" d="M 776.5,291.5 C 781.511,291.334 786.511,291.501 791.5,292C 790.364,293.145 789.364,294.312 788.5,295.5C 788.565,295.062 788.399,294.728 788,294.5C 787.167,295.333 786.333,296.167 785.5,297C 785.728,297.399 786.062,297.565 786.5,297.5C 786.672,298.492 786.338,299.158 785.5,299.5C 784.242,298.984 783.242,299.65 782.5,301.5C 782.611,302.117 782.944,302.617 783.5,303C 777.234,309.597 771.734,316.764 767,324.5C 763.665,329.171 759.999,332.837 756,335.5C 754.605,334.185 753.605,334.519 753,336.5C 752.667,336.167 752.333,335.833 752,335.5C 751.261,336.574 750.261,337.241 749,337.5C 747.248,336.714 745.414,336.88 743.5,338C 738.648,338.815 733.981,338.648 729.5,337.5C 738.344,337.161 745.511,333.494 751,326.5C 759.509,314.804 768.009,303.137 776.5,291.5 Z"/></g>
<g><path style="opacity:0.921" fill="#c9253d" d="M 987.5,291.5 C 992.214,291.173 996.88,291.507 1001.5,292.5C 1002.71,294.541 1004.37,295.874 1006.5,296.5C 1001.16,296.666 995.823,296.499 990.5,296C 988.624,295.082 987.624,293.582 987.5,291.5 Z"/></g>
<g><path style="opacity:1" fill="#64c64c" d="M 788.5,295.5 C 788.167,296.5 787.5,297.167 786.5,297.5C 786.062,297.565 785.728,297.399 785.5,297C 786.333,296.167 787.167,295.333 788,294.5C 788.399,294.728 788.565,295.062 788.5,295.5 Z"/></g>
<g><path style="opacity:1" fill="#4dbe25" d="M 785.5,299.5 C 785.027,300.906 784.027,301.573 782.5,301.5C 783.242,299.65 784.242,298.984 785.5,299.5 Z"/></g>
<g><path style="opacity:0.943" fill="#c93241" d="M 716.5,337.5 C 713.926,338.464 711.592,339.964 709.5,342C 709.986,344.728 709.32,347.395 707.5,350C 708.022,350.561 708.355,351.228 708.5,352C 707.808,356.685 706.641,361.185 705,365.5C 704.421,370.527 704.087,375.527 704,380.5C 704.5,381.667 705.333,382.5 706.5,383C 716.675,383.17 726.675,383.67 736.5,384.5C 721.833,384.5 707.167,384.5 692.5,384.5C 690.467,383.102 689.467,381.102 689.5,378.5C 691.466,365.702 693.966,353.035 697,340.5C 697.833,339.667 698.667,338.833 699.5,338C 705.157,337.501 710.824,337.334 716.5,337.5 Z"/></g>
</svg>
